<?xml version="1.0" encoding="iso-8859-1"?>
<!-- Generator: Adobe Illustrator 22.0.0, SVG Export Plug-In . SVG Version: 6.00 Build 0)  -->
<svg version="1.1" id="Scenario" xmlns="http://www.w3.org/2000/svg" xmlns:xlink="http://www.w3.org/1999/xlink" x="0px" y="0px"
	 viewBox="0 0 853.911 397.381" enable-background="new 0 0 853.911 397.381" xml:space="preserve">
<circle fill="#ffe2ce" cx="676.202" cy="107.386" r="37.043"/>
<path fill="#E09397" d="M853.91,82.353v176.24H0v-101.32c3.18-0.44,6.17-0.88,9.03-1.34c0.73-0.12,1.46-0.24,2.18-0.36
	c2.16-0.36,4.23-0.75,6.27-1.16c1.69-0.35,3.36-0.72,5.01-1.13c0.83-0.2,1.67-0.41,2.5-0.64c1.2-0.32,2.39-0.66,3.59-1.02
	c4.37-1.33,8.75-2.94,13.41-5.02c0.05-0.02,0.09-0.04,0.14-0.06c14.02-6.25,19.6-11.67,39.34-24.08c3.97-2.5,8.54-5.3,13.85-8.43
	c17.38-10.25,26.06-15.36,32.51-17.73c27.21-9.98,50.8-3.21,79.78,2.96c18.26,3.9,63.15,13.45,100.47,14.77
	c62.23,2.22,65.02-19.85,124.12-17.73c13.21,0.47,34.51,5.32,72.02,14.84c10.2,2.59,21.6,5.52,34.35,8.81
	c45.76,11.7,66.23,18.11,79.11,21.24c6.6,1.61,11.21,2.37,16.21,2.54c2.51,0.09,5.11,0.03,8.11-0.14
	c5.73-0.32,11.79-1.19,18.54-2.62h0.01c5.96-1.27,12.46-2.97,19.76-5.12c8.01-2.37,16.96-5.28,27.25-8.76h0.01
	c10.98-3.7,23.45-8.05,37.85-13.06c36.5-12.73,40.07-15.57,56.15-20.68C815.73,88.843,833.1,84.653,853.91,82.353z"/>
<path fill="#C47688" d="M853.91,139.883v179.73H0v-212.53c3.09,0.01,6.1,0.07,9.03,0.19c28.62,1.09,50.1,6.63,65.89,12.59
	c2.3,0.88,4.45,1.75,6.55,2.6c7.83,3.21,14.82,6.19,26.3,8.35c3.56,0.68,6.85,1.15,9.94,1.46c4.57,0.45,8.69,0.54,12.52,0.41
	c17.71-0.6,29.61-5.88,54.2-1.87c24.28,3.89,23.65,10.78,43.81,10.95c5.78,0.05,10.45-0.48,14.75-1.3c0.86-0.16,1.69-0.33,2.51-0.51
	c1.24-0.27,2.45-0.56,3.67-0.87c7.35-1.83,14.73-4.14,26.4-5.35c0.63-0.07,1.28-0.13,1.95-0.19c19.99-1.77,33.62,1.3,43.81,2.75
	c16.45,2.35,30.39,1.36,44.45-1.28c6.57-1.24,13.15-2.83,20.04-4.61c15.98-4.13,33.53-9.28,55.98-13.28
	c22.74-4.05,43.61-5.67,62.42-5.98c26.23-0.44,48.47,1.65,66.26,3.24c43.31,4.07,58.86,11.04,76.71,16.03
	c9.11,2.55,18.82,4.57,33.12,5.44c4.05,0.24,8.49,0.4,13.37,0.44c1.95,0.02,3.84,0.02,5.69-0.01h0.01
	c56.67-0.51,70.71-16.68,117.51-5.47C826.23,133.053,837.89,136.623,853.91,139.883z"/>
<path fill="#8F586A" d="M853.91,159.133v-5.01h-12.03v-5.01h-5.02v5.01h-7.51v50.12h-10.03l-5.01-10.03l-7.52,5.01l-7.51-5.01
	v-27.56c0,0-22.85-15.03-45.11-15.03c-22.85,0-45.1,15.03-45.1,15.03v50.11h-15.04v-20.04h-7.52v17.54H679v-70.16h-30.07v15.03
	h-15.04v-20.05h-7.51v-12.52h-5.01v12.52l-3.69,2.11l-13.85,7.92v52.62h-27.57v-62.65h-12.53l-26.31,10.03v51.36l-0.47-0.47
	l-2.51-2.51l-0.91-0.91l-7.38-7.38v-60.14h-10.03v5.01h-5v-2.5h-5.02v2.5h-10.02v55.13h-22.56v-33.83h-13.77l-0.93,0.93l-2.84,2.83
	h-5v25.06h-15.04v-50.12h-25.06v32.58h-20.04v-25.06h-5.02v-15.03h-20.04v15.03h-17.54v37.59H333.2v25.06h-17.54v-32.58h-7.51v-5.01
	h-32.58v-50.12h-32.58v55.13h-7.51v-17.54h-20.05v12.53H200.4v5.01h-10.03v17.54h-35.08v-47.61h-5v-7.52h-20.06v-5.01h-12.52v10.02
	h-5.02v12.54h-12.52v5h-2.51v57.64h-5.01v-40.1H82.63v-35.08H57.57v7.52H45.04v67.66h-2.51v-67.66H11.21v33.83l-2.18,2.18
	l-4.08,4.09H0v210.68h853.91v-205.68h-12.03v-2.5h12.03v-5.01h-12.03v-2.51h12.03v-5.01h-12.03v-2.51h12.03v-5h-12.03v-2.51h12.03
	v-5.01h-12.03v-2.51H853.91z M553.71,151.623h5.01v2.5h-5.01V151.623z M553.71,156.623h5.01v2.51h-5.01V156.623z M553.71,161.643
	h5.01v2.5h-5.01V161.643z M553.71,166.653h5.01v2.51h-5.01V166.653z M553.71,171.663h5.01v2.5h-5.01V171.663z M541.18,151.623h10.03
	v2.5h-10.03V151.623z M541.18,156.623h10.03v2.51h-10.03V156.623z M541.18,161.643h10.03v2.5h-10.03V161.643z M541.18,166.653h10.03
	v2.51h-10.03V166.653z M541.18,171.663h10.03v2.5h-10.03V171.663z M250.51,154.123v5.01h-5.01v-5.01H250.51z M245.5,151.623v-5.02
	h5.01v5.02H245.5z M250.51,161.643v5.01h-5.01v-5.01H250.51z M250.51,169.163v5h-5.01v-5H250.51z M250.51,176.673v5.01h-5.01v-5.01
	H250.51z M260.54,146.603v5.02h-5.01v-5.02H260.54z M255.53,144.103v-5.02h5.01v5.02H255.53z M260.54,154.123v5.01h-5.01v-5.01
	H260.54z M260.54,161.643v5.01h-5.01v-5.01H260.54z M353.25,159.133v2.51h-2.51v-2.51H353.25z M350.74,156.623v-2.5h2.51v2.5H350.74
	z M350.74,151.623v-2.51h2.51v2.51H350.74z M676.49,154.123h-5v-2.5h5V154.123z M676.49,161.643v2.5h-5v-2.5H676.49z
	 M676.49,171.663v2.5h-5v-2.5H676.49z M676.49,181.683v2.51h-5v-2.51H676.49z M30.01,174.163v5.02h-5.02v-5.02H30.01z
	 M24.99,171.663v-5.01h5.02v5.01H24.99z M30.01,181.683v5.02h-5.02v-5.02H30.01z M30.01,164.143h-5.02v-5.01h5.02V164.143z
	 M22.49,164.143h-5.01v-5.01h5.01V164.143z M22.49,166.653v5.01h-5.01v-5.01H22.49z M22.49,174.163v5.02h-5.01v-5.02H22.49z
	 M22.49,181.683v5.02h-5.01v-5.02H22.49z M663.97,151.623h5v2.5h-5V151.623z M663.97,161.643h5v2.5h-5V161.643z M663.97,171.663h5
	v2.5h-5V171.663z M663.97,181.683h5v2.51h-5V181.683z M656.45,151.623h5.01v2.5h-5.01V151.623z M656.45,161.643h5.01v2.5h-5.01
	V161.643z M656.45,171.663h5.01v2.5h-5.01V171.663z M656.45,181.683h5.01v2.51h-5.01V181.683z M618.86,169.163v-2.51h5.01v2.51
	H618.86z M623.87,171.663v2.5h-5.01v-2.5H623.87z M618.86,164.143v-2.5h5.01v2.5H618.86z M618.86,159.133v-2.51h5.01v2.51H618.86z
	 M618.86,154.123v-2.5h5.01v2.5H618.86z M606.33,151.623h10.02v2.5h-10.02V151.623z M606.33,156.623h10.02v2.51h-10.02V156.623z
	 M606.33,161.643h10.02v2.5h-10.02V161.643z M606.33,166.653h10.02v2.51h-10.02V166.653z M606.33,171.663h10.02v2.5h-10.02V171.663z
	 M365.78,144.103h2.5v2.5h-2.5V144.103z M365.78,149.113h2.5v2.51h-2.5V149.113z M365.78,154.123h2.5v2.5h-2.5V154.123z
	 M365.78,159.133h2.5v2.51h-2.5V159.133z M360.76,144.103h2.52v2.5h-2.52V144.103z M360.76,149.113h2.52v2.51h-2.52V149.113z
	 M360.76,154.123h2.52v2.5h-2.52V154.123z M360.76,159.133h2.52v2.51h-2.52V159.133z M355.76,144.103h2.5v2.5h-2.5V144.103z
	 M355.76,149.113h2.5v2.51h-2.5V149.113z M355.76,154.123h2.5v2.5h-2.5V154.123z M355.76,159.133h2.5v2.51h-2.5V159.133z
	 M350.74,144.103h2.51v2.5h-2.51V144.103z M245.5,124.053h5.01v5.01h-5.01V124.053z M245.5,131.573h5.01v5.01h-5.01V131.573z
	 M245.5,139.083h5.01v5.02h-5.01V139.083z M225.45,156.623h7.52v2.51h-7.52V156.623z M225.45,161.643h7.52v2.5h-7.52V161.643z
	 M225.45,166.653h7.52v2.51h-7.52V166.653z M225.45,171.663h7.52v2.5h-7.52V171.663z M225.45,176.673h7.52v2.51h-7.52V176.673z
	 M145.27,144.103h7.52v5.01h-7.52V144.103z M145.27,151.623h7.52v5h-7.52V151.623z M145.27,159.133h7.52v5.01h-7.52V159.133z
	 M135.25,144.103h7.52v5.01h-7.52V144.103z M135.25,151.623h7.52v5h-7.52V151.623z M135.25,159.133h7.52v5.01h-7.52V159.133z
	 M100.17,159.133h10.02v2.51h-10.02V159.133z M100.17,164.143h10.02v2.51h-10.02V164.143z M100.17,169.163h10.02v2.5h-10.02V169.163
	z M57.57,149.113h2.5v5.01h-2.5V149.113z M57.57,156.623h2.5v5.02h-2.5V156.623z M57.57,164.143h2.5v5.02h-2.5V164.143z
	 M57.57,171.663h2.5v5.01h-2.5V171.663z M57.57,179.183h2.5v5.01h-2.5V179.183z M52.56,149.113h2.51v5.01h-2.51V149.113z
	 M52.56,156.623h2.51v5.02h-2.51V156.623z M52.56,164.143h2.51v5.02h-2.51V164.143z M52.56,171.663h2.51v5.01h-2.51V171.663z
	 M52.56,179.183h2.51v5.01h-2.51V179.183z M37.52,186.703h-5.01v-5.02h5.01V186.703z M37.52,159.133v5.01h-5.01v-5.01H37.52z
	 M32.51,156.623v-5h5.01v5H32.51z M37.52,166.653v5.01h-5.01v-5.01H37.52z M37.52,174.163v5.02h-5.01v-5.02H37.52z M24.99,151.623
	h5.02v5h-5.02V151.623z M17.48,151.623h5.01v5h-5.01V151.623z M831.85,159.133h7.52v2.51h-7.52V159.133z M831.85,166.653h7.52v2.51
	h-7.52V166.653z M831.85,174.163h7.52v2.51h-7.52V174.163z M831.85,181.683h7.52v2.51h-7.52V181.683z M831.85,189.203h7.52v2.5
	h-7.52V189.203z"/>
<path fill="#544C5F" d="M377.94,194.743v2.51h2.51v-2.51H377.94z M377.94,194.743v2.51h2.51v-2.51H377.94z M377.94,194.743v2.51
	h2.51v-2.51H377.94z M377.94,194.743v2.51h2.51v-2.51H377.94z M377.94,194.743v2.51h2.51v-2.51H377.94z M377.94,194.743v2.51h2.51
	v-2.51H377.94z M377.94,194.743v2.51h2.51v-2.51H377.94z M377.94,194.743v2.51h2.51v-2.51H377.94z M377.94,194.743v2.51h2.51v-2.51
	H377.94z M377.94,194.743v2.51h2.51v-2.51H377.94z M377.94,194.743v2.51h2.51v-2.51H377.94z M377.94,194.743v2.51h2.51v-2.51H377.94
	z M377.94,194.743v2.51h2.51v-2.51H377.94z M377.94,194.743v2.51h2.51v-2.51H377.94z M377.94,194.743v2.51h2.51v-2.51H377.94z
	 M377.94,194.743v2.51h2.51v-2.51H377.94z M377.94,194.743v2.51h2.51v-2.51H377.94z M377.94,194.743v2.51h2.51v-2.51H377.94z
	 M815.17,259.983v-45.17h-5.01v-2.5h5.01v-2.52h-42.66v2.52h5.02v2.5h-5.02v42.67h-5.02v-2.51h-5.02v-2.52h-7.53v-2.5h-7.53v-2.51
	h-7.52v-2.52h-12.55v-2.5H717.3v-2.51h-17.56v-45.17h2.5v-2.52h-2.5v-10.03h2.5v-2.51l-10.03-10.03l-10.04,10.03v2.51h2.51v10.03
	h-2.51v2.52h2.51v45.17h-7.53v-2.51h-2.51v20.08h-25.1v-17.57h2.51v-2.51h-2.51v-17.57h2.51v-5.02h-2.51v-17.56h2.51v-5.03h-2.51
	v-15.05h5.03v-2.51h-62.75v2.51h5.02v60.23h-20.07v-10.04h-27.61v-2.51h27.61v-2.51h-27.61v-2.51h27.61v-2.51h-27.61v-2.51h27.61
	v-2.5h-27.61v-2.52h27.61v-2.51h-27.61v-2.5h27.61v-5.03h-35.14v10.04h-25.1v22.59h-22.58v-55.21l-10.03-10.04h-15.06v15.06h-10.04
	v-42.66h-5.02v-5.02h-37.64v5.02h-5.03v70.26h-27.6v-30.11h-30.12v-32.62h-37.64v42.66h-50.19v65.25h-15.06v-62.75h-92.84v57.73
	h-32.63v-102.89H74.86v35.13H37.21v45.17H4.59v35.13H0v100.38h822.7v-102.89H815.17z M280.64,229.873v-5.02h7.53v5.02H280.64z
	 M293.18,224.853h20.09v5.02h-20.09V224.853z M483.92,217.323v-5.01h5.01v5.01H483.92z M488.93,209.793h-5.01v-5.01h5.01V209.793z
	 M478.89,194.743h-5.02v-5.02h5.02V194.743z M478.89,197.253v5.01h-5.02v-5.01H478.89z M478.89,204.783v5.01h-5.02v-5.01H478.89z
	 M478.89,212.313v5.01h-5.02v-5.01H478.89z M295.7,214.813h7.53v5.02h-7.53V214.813z M313.27,219.833h-5.03v-5.02h5.03V219.833z
	 M92.42,232.383v12.54H87.4v-12.54H92.42z M87.4,224.853v-12.54h5.02v12.54H87.4z M92.42,187.213H87.4v-12.55h5.02V187.213z
	 M87.4,194.743h5.02v12.54H87.4V194.743z M84.89,244.923h-5.02v-12.54h5.02V244.923z M84.89,224.853h-5.02v-12.54h5.02V224.853z
	 M624.45,242.423h5.02v5.02h-5.02V242.423z M631.98,249.953v5.02h-15.06v-5.02H631.98z M702.24,249.953v7.53h-17.56v-7.53H702.24z
	 M647.04,254.973h-5.03v-5.02h5.03V254.973z M639.51,254.973h-5.03v-5.02h5.03V254.973z M526.58,227.363h-5.02v-5.02h5.02V227.363z
	 M521.56,229.873h5.02v5.02h-5.02V229.873z M521.56,237.403h5.02v5.02h-5.02V237.403z M521.56,244.923h5.02v5.03h-5.02V244.923z
	 M775.02,244.923v-5.01h12.55v5.01H775.02z M810.16,217.323h2.5v5.02h-2.5V217.323z M810.16,224.853h2.5v5.02h-2.5V224.853z
	 M805.13,217.323h2.52v5.02h-2.52V217.323z M805.13,224.853h2.52v5.02h-2.52V224.853z M800.12,217.323h2.51v5.02h-2.51V217.323z
	 M800.12,224.853h2.51v5.02h-2.51V224.853z M795.1,217.323h2.5v5.02h-2.5V217.323z M795.1,224.853h2.5v5.02h-2.5V224.853z
	 M775.02,217.323h12.55v5.02h-12.55V217.323z M775.02,224.853h12.55v5.02h-12.55V224.853z M775.02,232.383h12.55v5.02h-12.55
	V232.383z M692.21,184.703c1.38,0,2.5,1.13,2.5,2.51c0,1.39-1.12,2.51-2.5,2.51c-1.39,0-2.51-1.12-2.51-2.51
	C689.7,185.833,690.82,184.703,692.21,184.703z M647.04,247.443h-15.06v-5.02h15.06V247.443z M647.04,199.753v5.03h-15.06v-5.03
	H647.04z M634.48,192.223v-5.01h5.03v5.01H634.48z M642.01,192.223v-5.01h5.03v5.01H642.01z M647.04,207.283v5.03h-5.03v-5.03
	H647.04z M639.51,207.283v5.03h-5.03v-5.03H639.51z M647.04,222.343v5.02h-15.06v-5.02H647.04z M647.04,229.873v5.02h-5.03v-5.02
	H647.04z M639.51,229.873v5.02h-5.03v-5.02H639.51z M631.98,179.683h15.06v5.02h-15.06V179.683z M624.45,179.683h5.02v5.02h-5.02
	V179.683z M616.92,179.683h5.02v5.02h-5.02V179.683z M616.92,187.213h15.06v5.01h-15.06V187.213z M629.47,199.753v5.03h-5.02v-5.03
	H629.47z M616.92,199.753h5.02v5.03h-5.02V199.753z M616.92,207.283h15.06v5.03h-15.06V207.283z M629.47,222.343v5.02h-5.02v-5.02
	H629.47z M616.92,222.343h5.02v5.02h-5.02V222.343z M616.92,229.873h15.06v5.02h-15.06V229.873z M616.92,242.423h5.02v5.02h-5.02
	V242.423z M531.59,214.813h5.03v5.02h-5.03V214.813z M531.59,222.343h5.03v5.02h-5.03V222.343z M531.59,229.873h5.03v5.02h-5.03
	V229.873z M531.59,237.403h5.03v5.02h-5.03V237.403z M531.59,244.923h5.03v5.03h-5.03V244.923z M521.56,214.813h5.02v5.02h-5.02
	V214.813z M488.93,202.263h-5.01v-5.01h5.01V202.263z M483.92,194.743v-5.02h5.01v5.02H483.92z M483.92,182.193h5.01v5.02h-5.01
	V182.193z M473.87,182.193h5.02v5.02h-5.02V182.193z M413.64,144.553h30.12v2.51h-30.12V144.553z M413.64,149.563h30.12v2.52h-30.12
	V149.563z M413.64,154.593h30.12v2.5h-30.12V154.593z M413.64,159.603h30.12v2.52h-30.12V159.603z M413.64,164.623h30.12v2.51
	h-30.12V164.623z M413.64,169.653h30.12v2.5h-30.12V169.653z M381.02,209.793H376v-12.54h5.02V209.793z M376,182.193h5.02v12.55H376
	V182.193z M368.47,182.193h5.02v12.55h-5.02V182.193z M368.47,197.253h5.02v12.54h-5.02V197.253z M345.89,152.083h5.02v12.54h-5.02
	V152.083z M345.89,167.133h5.02v12.55h-5.02V167.133z M338.36,152.083h5.02v12.54h-5.02V152.083z M338.36,167.133h5.02v12.55h-5.02
	V167.133z M313.27,194.743v5.01h-5.03v-5.01H313.27z M295.7,194.743h7.53v5.01h-7.53V194.743z M293.18,204.783h20.09v5.01h-20.09
	V204.783z M270.6,194.743h20.08v5.01H270.6V194.743z M288.17,204.783v5.01h-7.53v-5.01H288.17z M270.6,204.783h5.02v5.01h-5.02
	V204.783z M270.6,214.813h20.08v5.02H270.6V214.813z M270.6,224.853h5.02v5.02h-5.02V224.853z M237.98,207.283h10.03v2.51h-10.03
	V207.283z M237.98,212.313h10.03v2.5h-10.03V212.313z M237.98,217.323h10.03v2.51h-10.03V217.323z M237.98,222.343h10.03v2.51
	h-10.03V222.343z M237.98,227.363h10.03v2.51h-10.03V227.363z M224.3,207.283h3.64v40.16h-3.64V207.283z M216.99,207.283h3.65v40.16
	h-3.65V207.283z M209.7,207.283h3.63v40.16h-3.63V207.283z M202.39,207.283h3.64v40.16h-3.64V207.283z M195.09,207.283h3.63v40.16
	h-3.63V207.283z M187.79,207.283h3.63v40.16h-3.63V207.283z M177.75,207.283h5.01v5.03h-5.01V207.283z M177.75,214.813h5.01v5.02
	h-5.01V214.813z M177.75,222.343h5.01v5.02h-5.01V222.343z M177.75,229.873h5.01v5.02h-5.01V229.873z M170.22,207.283h5.02v5.03
	h-5.02V207.283z M170.22,214.813h5.02v5.02h-5.02V214.813z M170.22,222.343h5.02v5.02h-5.02V222.343z M170.22,229.873h5.02v5.02
	h-5.02V229.873z M162.69,207.283h5.02v5.03h-5.02V207.283z M162.69,214.813h5.02v5.02h-5.02V214.813z M162.69,222.343h5.02v5.02
	h-5.02V222.343z M162.69,229.873h5.02v5.02h-5.02V229.873z M87.4,154.593h5.02v12.54H87.4V154.593z M79.87,154.593h5.02v12.54h-5.02
	V154.593z M79.87,174.663h5.02v12.55h-5.02V174.663z M79.87,194.743h5.02v12.54h-5.02V194.743z M377.94,194.743v2.51h2.51v-2.51
	H377.94z M377.94,194.743v2.51h2.51v-2.51H377.94z M377.94,194.743v2.51h2.51v-2.51H377.94z M377.94,194.743v2.51h2.51v-2.51H377.94
	z M377.94,194.743v2.51h2.51v-2.51H377.94z M377.94,194.743v2.51h2.51v-2.51H377.94z M377.94,194.743v2.51h2.51v-2.51H377.94z
	 M377.94,194.743v2.51h2.51v-2.51H377.94z M377.94,194.743v2.51h2.51v-2.51H377.94z M377.94,194.743v2.51h2.51v-2.51H377.94z
	 M377.94,194.743v2.51h2.51v-2.51H377.94z M377.94,194.743v2.51h2.51v-2.51H377.94z M377.94,194.743v2.51h2.51v-2.51H377.94z
	 M377.94,194.743v2.51h2.51v-2.51H377.94z M377.94,194.743v2.51h2.51v-2.51H377.94z M377.94,194.743v2.51h2.51v-2.51H377.94z
	 M377.94,194.743v2.51h2.51v-2.51H377.94z"/>
<g>
	<g>
		<rect x="164.626" y="244.304" fill="#2B3949" width="2.51" height="10.038"/>
		<g>
			<path fill="#2B3949" d="M776.96,237.403v2.51h2.5v-2.51H776.96z M776.96,237.403v2.51h2.5v-2.51H776.96z M776.96,237.403v2.51
				h2.5v-2.51H776.96z M776.96,237.403v2.51h2.5v-2.51H776.96z M776.96,237.403v2.51h2.5v-2.51H776.96z M776.96,237.403v2.51h2.5
				v-2.51H776.96z M776.96,237.403v2.51h2.5v-2.51H776.96z M776.96,237.403v2.51h2.5v-2.51H776.96z M776.96,237.403v2.51h2.5v-2.51
				H776.96z M776.96,237.403v2.51h2.5v-2.51H776.96z M776.96,237.403v2.51h2.5v-2.51H776.96z M776.96,237.403v2.51h2.5v-2.51H776.96
				z M776.96,237.403v2.51h2.5v-2.51H776.96z M776.96,237.403v2.51h2.5v-2.51H776.96z M776.96,237.403v2.51h2.5v-2.51H776.96z
				 M776.96,237.403v2.51h2.5v-2.51H776.96z M776.96,237.403v2.51h2.5v-2.51H776.96z M776.96,237.403v2.51h2.5v-2.51H776.96z
				 M822.13,194.113v-10.04h-35.14v47.69H736.8v57.72h-35.13v-42.67H598.78v37.64h-65.25v-125.48h-35.14v130.51h-32.61v-82.82
				h-30.12v-17.57h-62.74v110.42h-17.56v-122.97h-30.12l-7.53,12.55h-7.53l-0.32,0.63l-4.7,9.41h-5.02l-0.37,0.62l-3.01,5.03
				l-3.02,5.01l-1.13,1.89v85.33H262.5l-2.52-35.15h-5.01l-2.51,37.65l-2.51,2.51l2.51-40.16h-7.53l-5.02,37.65h-7.53l-5.01-37.65
				h-7.53v2.52h-7.53l-2.51,37.64l-2.51-37.64h-2.51l-2.51-2.52h-5.02l-2.51,37.65l-5.02,2.51l2.52-40.16h-12.56l2.51,42.67h-12.54
				v-42.67h-2.51v-2.5h-7.53v2.5h-2.52v-2.5h-7.52v2.5h-2.51v-2.5h-2.51v-2.51h2.51v-2.51h-2.51v-10.04h20.07v-2.51h2.52v2.51h2.51
				v-5.02h-25.1v-20.08h-42.66v82.82h-7.53v-40.16l-3.27-3.27l-3.7-3.69l-0.56-0.56H59.22l-4.26,4.25l-1.63,1.64l-4.14,4.15v37.64
				H31.62v-30.11H19.07v-5.02H9.03v130.49h844.88v-203.27H822.13z M111.92,224.233h5.03v5.02h-5.03V224.233z M111.92,236.773h5.03
				v5.02h-5.03V236.773z M111.92,249.323h5.03v5.02h-5.03V249.323z M104.39,224.233h5.03v5.02h-5.03V224.233z M104.39,236.773h5.03
				v5.02h-5.03V236.773z M104.39,249.323h5.03v5.02h-5.03V249.323z M824.64,199.133h10.04v10.04h-10.04V199.133z M824.64,244.303
				h10.04v10.04h-10.04V244.303z M824.64,239.283v-10.03h10.04v10.03H824.64z M824.64,224.233v-10.04h10.04v10.04H824.64z
				 M54.2,279.433v-5.01h35.14v5.01H54.2z M89.34,284.453v5.03H54.2v-5.03H89.34z M109.42,271.913v5.01h-5.03v-5.01H109.42z
				 M104.39,266.893v-5.03h5.03v5.03H104.39z M109.42,284.453v5.03h-5.03v-5.03H109.42z M116.95,271.913v5.01h-5.03v-5.01H116.95z
				 M111.92,266.893v-5.03h5.03v5.03H111.92z M116.95,284.453v5.03h-5.03v-5.03H116.95z M139.53,289.483v-2.52h27.61v2.52H139.53z
				 M167.14,281.953h-27.61v-5.03h27.61V281.953z M320.22,281.953v5.01h-20.08v-5.01H320.22z M320.22,266.893h-22.59v-5.03h22.59
				V266.893z M423.11,256.853h5.02v5.01h-5.02V256.853z M433.15,246.813v-5.02h12.54v5.02H433.15z M445.69,249.323v5.02h-5.01v-5.02
				H445.69z M438.16,249.323v5.02h-5.01v-5.02H438.16z M438.16,256.853v5.01h-5.01v-5.01H438.16z M428.13,254.343h-5.02v-5.02h5.02
				V254.343z M393,254.343h-5.03v-5.02H393V254.343z M410.56,241.793v5.02h-12.54v-5.02H410.56z M398.02,236.773v-17.57h12.54v17.57
				H398.02z M410.56,249.323v5.02h-5.02v-5.02H410.56z M403.03,249.323v5.02h-5.01v-5.02H403.03z M403.03,256.853v5.01h-5.01v-5.01
				H403.03z M410.56,261.863h-5.02v-5.01h5.02V261.863z M393,219.203v17.57h-12.55v-17.57H393z M393,241.793v5.02h-12.55v-5.02H393z
				 M385.47,249.323v5.02h-5.02v-5.02H385.47z M387.97,256.853H393v5.01h-5.03V256.853z M528.51,241.793v7.53h-25.09v-7.53H528.51z
				 M656.5,266.893v5.02h-5.02v-5.02H656.5z M651.48,264.383v-5.02h5.02v5.02H651.48z M656.5,274.423v5.01h-5.02v-5.01H656.5z
				 M656.5,281.953v5.01h-5.02v-5.01H656.5z M669.04,266.893v5.02h-5.01v-5.02H669.04z M664.03,264.383v-5.02h5.01v5.02H664.03z
				 M669.04,274.423v5.01h-5.01v-5.01H669.04z M669.04,281.953v5.01h-5.01v-5.01H669.04z M681.6,266.893v5.02h-5.03v-5.02H681.6z
				 M676.57,264.383v-5.02h5.03v5.02H676.57z M681.6,274.423v5.01h-5.03v-5.01H681.6z M681.6,281.953v5.01h-5.03v-5.01H681.6z
				 M643.95,264.383h-42.67v-5.02h42.67V264.383z M643.95,266.893v5.02h-42.67v-5.02H643.95z M643.95,274.423v5.01h-42.67v-5.01
				H643.95z M643.95,281.953v5.01h-42.67v-5.01H643.95z M689.13,271.913v-5.02h5.01v5.02H689.13z M694.14,274.423v5.01h-5.01v-5.01
				H694.14z M689.13,264.383v-5.02h5.01v5.02H689.13z M689.13,281.953h5.01v5.01h-5.01V281.953z M764.4,241.793h-22.58v-2.51h22.58
				V241.793z M764.4,244.303v2.51h-22.58v-2.51H764.4z M741.82,249.323h22.58v2.51h-22.58V249.323z M779.46,254.343h7.53v17.57
				h-7.53V254.343z M779.46,234.263h7.53v17.57h-7.53V234.263z M769.43,234.263h7.53v17.57h-7.53V234.263z M769.43,254.343h7.53
				v17.57h-7.53V254.343z M741.82,234.263h22.58v2.51h-22.58V234.263z M694.14,251.833v5.02h-5.01v-5.02H694.14z M676.57,251.833
				h5.03v5.02h-5.03V251.833z M664.03,251.833h5.01v5.02h-5.01V251.833z M651.48,251.833h5.02v5.02h-5.02V251.833z M601.28,251.833
				h42.67v5.02h-42.67V251.833z M503.42,219.203v-7.52h25.09v7.52H503.42z M503.42,166.503h25.09v7.53h-25.09V166.503z
				 M503.42,181.563h25.09v7.53h-25.09V181.563z M503.42,196.623h25.09v7.53h-25.09V196.623z M503.42,226.733h25.09v7.53h-25.09
				V226.733z M445.69,261.863h-5.01v-5.01h5.01V261.863z M445.69,219.203v17.57h-12.54v-17.57H445.69z M430.63,191.603h2.52v7.53
				h-2.52V191.603z M425.62,191.603h2.51v7.53h-2.51V191.603z M420.6,191.603h2.51v7.53h-2.51V191.603z M415.58,191.603h2.51v7.53
				h-2.51V191.603z M415.58,219.203h12.55v17.57h-12.55V219.203z M415.58,241.793h12.55v5.02h-12.55V241.793z M415.58,249.323h5.02
				v5.02h-5.02V249.323z M415.58,256.853h5.02v5.01h-5.02V256.853z M410.56,191.603h2.51v7.53h-2.51V191.603z M405.54,191.603h2.51
				v7.53h-2.51V191.603z M400.52,191.603h2.51v7.53h-2.51V191.603z M395.5,191.603h2.52v7.53h-2.52V191.603z M390.49,191.603H393
				v7.53h-2.51V191.603z M385.47,191.603h2.5v7.53h-2.5V191.603z M380.45,191.603h2.51v7.53h-2.51V191.603z M375.43,191.603h2.51
				v7.53h-2.51V191.603z M380.45,256.853h5.02v5.01h-5.02V256.853z M295.13,251.833h25.09v5.02h-25.09V251.833z M300.14,246.813
				v-5.02h20.08v5.02H300.14z M295.13,236.773v-5.01h25.09v5.01H295.13z M297.63,226.733v-5.01h22.59v5.01H297.63z M295.13,216.703
				v-5.02h25.09v5.02H295.13z M347.83,191.603h5.01v5.02h-5.01V191.603z M340.3,189.093v-5.02h5.01v5.02H340.3z M345.31,191.603
				v5.02h-5.01v-5.02H345.31z M345.31,219.203h-5.01v-5.01h5.01V219.203z M345.31,231.763h-5.01v-5.03h5.01V231.763z M340.3,239.283
				v-5.02h5.01v5.02H340.3z M347.83,239.283v-5.02h5.01v5.02H347.83z M347.83,231.763v-5.03h5.01v5.03H347.83z M347.83,219.203
				v-5.01h5.01v5.01H347.83z M345.31,211.683h-5.01v-5.02h5.01V211.683z M352.84,211.683h-5.01v-5.02h5.01V211.683z M352.84,184.073
				v5.02h-5.01v-5.02H352.84z M295.13,271.913h25.09v5.01h-25.09V271.913z M167.14,266.893v5.02h-27.61v-5.02H167.14z M54.2,264.383
				h35.14v5.01H54.2V264.383z M19.07,279.433h5.02v22.59h-5.02V279.433z M824.64,269.393v-10.03h10.04v10.03H824.64z
				 M776.96,237.403v2.51h2.5v-2.51H776.96z M776.96,237.403v2.51h2.5v-2.51H776.96z M776.96,237.403v2.51h2.5v-2.51H776.96z
				 M776.96,237.403v2.51h2.5v-2.51H776.96z M776.96,237.403v2.51h2.5v-2.51H776.96z M776.96,237.403v2.51h2.5v-2.51H776.96z
				 M776.96,237.403v2.51h2.5v-2.51H776.96z M776.96,237.403v2.51h2.5v-2.51H776.96z M776.96,237.403v2.51h2.5v-2.51H776.96z
				 M776.96,237.403v2.51h2.5v-2.51H776.96z M776.96,237.403v2.51h2.5v-2.51H776.96z M776.96,237.403v2.51h2.5v-2.51H776.96z
				 M776.96,237.403v2.51h2.5v-2.51H776.96z M776.96,237.403v2.51h2.5v-2.51H776.96z M776.96,237.403v2.51h2.5v-2.51H776.96z
				 M776.96,237.403v2.51h2.5v-2.51H776.96z M776.96,237.403v2.51h2.5v-2.51H776.96z"/>
		</g>
		<rect x="159.607" y="254.343" fill="#2B3949" width="5.019" height="2.51"/>
		<rect x="149.569" y="254.343" fill="#2B3949" width="7.529" height="2.51"/>
		<rect x="147.059" y="256.852" fill="#2B3949" width="2.51" height="2.51"/>
		<rect x="157.097" y="256.852" fill="#2B3949" width="2.51" height="2.51"/>
		<rect x="167.136" y="256.852" fill="#2B3949" width="2.51" height="2.51"/>
	</g>
</g>
<polygon fill="#202B37" points="264.72,297.609 429.914,349.669 477.97,349.669 291.752,297.609 "/>
<g>
	<g>
		<rect x="610.899" y="327" fill="#122125" width="2.51" height="15.057"/>
		<rect x="648.542" y="327" fill="#122125" width="2.51" height="15.057"/>
		<rect x="610.899" y="304.414" fill="#122125" width="2.51" height="22.586"/>
		<rect x="603.37" y="304.414" fill="#122125" width="17.567" height="2.51"/>
		<rect x="618.427" y="306.924" fill="#122125" width="2.51" height="2.51"/>
		<rect x="603.37" y="306.924" fill="#122125" width="2.51" height="2.51"/>
		<rect x="648.542" y="304.414" fill="#122125" width="2.51" height="22.586"/>
		<rect x="641.013" y="304.414" fill="#122125" width="17.567" height="2.51"/>
		<rect x="656.071" y="306.924" fill="#122125" width="2.51" height="2.51"/>
		<rect x="641.013" y="306.924" fill="#122125" width="2.51" height="2.51"/>
	</g>
	<g>
		<rect x="255.53" y="341.043" fill="#122125" width="2.51" height="12.548"/>
		<rect x="217.887" y="313.438" fill="#122125" width="2.51" height="41.006"/>
		<rect x="212.868" y="313.438" fill="#122125" width="12.548" height="2.51"/>
		<rect x="215.377" y="318.457" fill="#122125" width="7.529" height="2.51"/>
		<rect x="255.53" y="313.438" fill="#122125" width="2.51" height="35.134"/>
		<rect x="250.511" y="313.438" fill="#122125" width="12.548" height="2.51"/>
		<rect x="253.021" y="318.457" fill="#122125" width="7.529" height="2.51"/>
		<rect x="180.997" y="312.484" fill="#122125" width="2.51" height="41.006"/>
		<rect x="175.977" y="312.484" fill="#122125" width="12.548" height="2.51"/>
		<rect x="178.487" y="317.504" fill="#122125" width="7.529" height="2.51"/>
	</g>
</g>
<g id="metro">
	<g>
		<g>
			<path fill="#C42700" d="M763.24,337.763c-0.35-4.34-2.07-8.07-5.3-11.05c-1.66-1.53-3.53-2.69-5.52-3.62
				c-0.09-0.04-0.17-0.08-0.26-0.12c-1.03-0.48-2.09-0.9-3.17-1.28c-2.2-0.76-4.41-1.09-6.74-1.06c-5.35,0.09-10.7,0.03-16.05,0.03
				h-67.84c-2.43,0-4.88,0.01-7.31,0.01h-2.51c-2.12,0-4.26,0.01-6.38,0.01v26.38h2.35c5.9-0.01,11.78-0.02,17.68-0.02
				c2.47,0,4.94,0,7.41,0.01h2.52c5.02,0,10.04,0.01,15.05,0.02h5.42c19.58,0,39.17,0.01,58.74-0.03c1.78,0,3.6-0.19,5.34-0.59
				c2.45-0.56,4.19-1.53,5.26-2.96c0.06-0.07,0.11-0.15,0.16-0.22c0.06-0.07,0.11-0.15,0.15-0.23c0.01-0.02,0.03-0.05,0.04-0.07
				c0.17-0.27,0.31-0.56,0.43-0.86c0.04-0.08,0.07-0.17,0.1-0.26c0.04-0.11,0.08-0.22,0.11-0.33c0.01-0.06,0.03-0.11,0.05-0.17
				c0.1-0.36,0.18-0.73,0.23-1.13c0.01-0.1,0.02-0.21,0.03-0.32c0.02-0.11,0.03-0.22,0.03-0.33c0.02-0.27,0.02-0.54,0.02-0.82
				C763.28,338.433,763.27,338.103,763.24,337.763z M747.34,322.693c0.04-0.14,0.34-0.32,0.48-0.32h0.04
				c0.31,0.09,0.62,0.19,0.93,0.29c0.31,0.11,0.61,0.21,0.91,0.31c0.21,0.07,0.42,0.15,0.62,0.23c0.3,0.11,0.59,0.22,0.88,0.35
				c0.4,0.16,0.79,0.33,1.17,0.52c0.02,0,0.03,0.01,0.05,0.02c0.03,0.01,0.06,0.03,0.09,0.05c0.15,0.07,0.29,0.14,0.44,0.22
				c0.08,0.04,0.16,0.08,0.24,0.12c0.25,0.12,0.5,0.26,0.75,0.41c0.25,0.14,0.49,0.29,0.72,0.44c0.01,0,0.02,0.01,0.03,0.01
				c0.47,0.29,0.92,0.61,1.36,0.96c0.2,0.15,0.39,0.31,0.58,0.47c0.14,0.11,0.29,0.23,0.43,0.37c0.09,0.08,0.18,0.16,0.27,0.25
				c0.02,0,0.03,0.02,0.05,0.05c0.08,0.07,0.17,0.15,0.26,0.24c0.02,0.02,0.04,0.03,0.05,0.06c0.12,0.12,0.24,0.24,0.35,0.36
				c0.23,0.24,0.45,0.49,0.66,0.75c0.01,0,0.01,0.01,0.02,0.02c0.12,0.14,0.23,0.28,0.34,0.42c0.05,0.06,0.1,0.12,0.13,0.18
				c0.08,0.11,0.16,0.21,0.23,0.32c0.16,0.21,0.3,0.43,0.45,0.66c0.02,0.02,0.03,0.04,0.04,0.06c0.15,0.22,0.28,0.44,0.4,0.68
				c0.01,0.01,0.01,0.01,0.01,0.02c0.07,0.12,0.14,0.25,0.2,0.37c0.15,0.28,0.3,0.56,0.43,0.85c0.21,0.45,0.38,0.93,0.54,1.41
				c0.11,0.32,0.21,0.64,0.3,0.96c0.15,0.49,0.29,0.97,0.45,1.45c-0.07,0.1-0.13,0.2-0.2,0.29c-0.89-0.04-1.79-0.05-2.68-0.14
				c-0.22-0.02-0.44-0.05-0.65-0.08c-0.24-0.03-0.48-0.06-0.71-0.09c-0.34-0.05-0.68-0.1-1.01-0.17c-0.39-0.07-0.78-0.15-1.16-0.25
				c-0.32-0.07-0.62-0.16-0.92-0.25c-0.05-0.01-0.09-0.02-0.13-0.04c-0.04-0.01-0.07-0.02-0.1-0.03c-0.39-0.12-0.77-0.25-1.15-0.4
				c-0.19-0.07-0.37-0.15-0.56-0.23c-0.18-0.08-0.37-0.16-0.55-0.25c-0.69-0.33-1.37-0.72-2.02-1.17c-0.2-0.14-0.39-0.28-0.58-0.43
				c-0.18-0.14-0.36-0.28-0.53-0.43c-0.16-0.15-0.33-0.3-0.49-0.46c-0.15-0.15-0.29-0.3-0.43-0.46c-0.14-0.15-0.27-0.31-0.39-0.47
				c-0.08-0.11-0.16-0.22-0.24-0.33c-0.08-0.12-0.16-0.24-0.24-0.37c-0.11-0.17-0.21-0.35-0.3-0.54c-0.06-0.12-0.11-0.23-0.16-0.35
				c-0.06-0.12-0.11-0.25-0.15-0.38c-0.06-0.15-0.1-0.3-0.15-0.45c-0.23-0.83-0.32-1.73-0.23-2.72v-0.01
				c0.02-0.28,0.07-0.56,0.13-0.84c0.04-0.19,0.08-0.37,0.13-0.56c0.15-0.56,0.33-1.12,0.49-1.67
				C747.29,322.883,747.31,322.783,747.34,322.693z M736.54,329.413c0-0.86,0-1.72,0.01-2.58c0-0.13,0.01-0.25,0.02-0.36
				c0.01-0.06,0.02-0.13,0.03-0.18c0.01-0.06,0.02-0.11,0.03-0.16c0.02-0.05,0.03-0.09,0.05-0.14c0.04-0.13,0.11-0.25,0.2-0.34
				c0.02-0.04,0.05-0.07,0.09-0.1c0.11-0.11,0.25-0.18,0.41-0.23c0.02-0.01,0.04-0.02,0.06-0.02c0.01-0.01,0.02-0.01,0.03-0.01
				c0.06-0.02,0.11-0.04,0.18-0.04c0.01-0.01,0.02-0.01,0.03,0c0.08-0.02,0.17-0.03,0.27-0.03c0.07-0.01,0.14-0.01,0.21-0.01
				c0.47-0.01,0.84,0,1.15,0.02c0.11,0.01,0.21,0.02,0.3,0.04c0.04,0,0.07,0,0.1,0.01c0.07,0.01,0.14,0.03,0.19,0.06
				c0.03,0,0.06,0.02,0.08,0.03c0.01,0,0.01,0.01,0.01,0.01c0.04,0.01,0.08,0.03,0.11,0.05c0.05,0.02,0.09,0.04,0.13,0.08
				c0.05,0.04,0.09,0.08,0.12,0.12c0.07,0.09,0.13,0.19,0.17,0.31c0.03,0.06,0.05,0.14,0.06,0.21c0.04,0.19,0.07,0.42,0.08,0.7
				c0.01,0.08,0.01,0.17,0.01,0.27c0.01,0.18,0.01,0.38,0.01,0.6c0,3.05,0.01,6.11,0,9.16c0,1.17-0.22,1.69-0.98,1.87h-0.01
				c-0.26,0.06-0.58,0.08-0.99,0.08c-0.22,0-0.44,0.01-0.66,0c-0.22-0.01-0.4-0.04-0.57-0.08h-0.01c-0.03-0.01-0.05-0.02-0.07-0.03
				c-0.07-0.02-0.13-0.05-0.19-0.08c-0.08-0.04-0.15-0.09-0.21-0.14c-0.03-0.02-0.05-0.04-0.07-0.07c-0.03-0.02-0.05-0.05-0.06-0.07
				c-0.16-0.18-0.25-0.42-0.29-0.72c-0.01-0.05-0.01-0.1-0.01-0.16c-0.01-0.01-0.01-0.02-0.01-0.04c-0.01-0.04-0.01-0.08-0.01-0.13
				V329.413z M731.69,326.863c0-1.2,0.46-1.66,1.65-1.67c0.73-0.01,1.25,0,1.61,0.11c0.05,0.01,0.09,0.02,0.13,0.04
				c0.05,0.01,0.1,0.03,0.14,0.06c0.07,0.03,0.13,0.07,0.18,0.12c0.11,0.09,0.19,0.2,0.25,0.35c0.01,0.04,0.03,0.08,0.04,0.13
				c0.04,0.1,0.06,0.22,0.08,0.35c0.02,0.13,0.03,0.27,0.04,0.43c0.01,0.12,0.01,0.25,0.01,0.39c0.01,0.15,0.01,0.31,0.01,0.48v9.54
				c0,0.22-0.02,0.42-0.06,0.59c-0.02,0.09-0.04,0.17-0.07,0.24c-0.06,0.15-0.14,0.28-0.24,0.38c-0.05,0.06-0.11,0.11-0.17,0.15
				c-0.12,0.09-0.26,0.15-0.43,0.2c-0.19,0.05-0.41,0.08-0.65,0.08c-0.71,0.02-1.22,0.01-1.59-0.08c-0.1-0.03-0.19-0.06-0.27-0.1
				c-0.08-0.04-0.15-0.08-0.21-0.14c-0.05-0.04-0.1-0.09-0.13-0.15c-0.02-0.02-0.04-0.04-0.05-0.07c-0.01-0.01-0.02-0.02-0.02-0.04
				c-0.03-0.04-0.05-0.08-0.06-0.13c-0.01-0.01-0.02-0.02-0.02-0.04c-0.02-0.05-0.03-0.1-0.05-0.16c-0.03-0.1-0.05-0.21-0.07-0.34
				c-0.01-0.12-0.02-0.26-0.03-0.41c-0.02-0.23-0.02-0.48-0.02-0.77C731.69,333.223,731.68,330.043,731.69,326.863z M711.02,325.523
				c0.01-0.01,0.02-0.02,0.04-0.03c0.07-0.07,0.15-0.11,0.24-0.14c0.05-0.03,0.1-0.04,0.16-0.06h0.01c0.07-0.01,0.14-0.03,0.22-0.03
				c0.1-0.02,0.2-0.02,0.32-0.02c1.76-0.01,3.52,0,5.28,0h0.33v0.01h5.55c0.54,0,0.86,0.07,1.06,0.26c0.05,0.04,0.1,0.1,0.13,0.17
				c0.03,0.07,0.06,0.14,0.08,0.23c0.04,0.17,0.06,0.38,0.06,0.64v8.65c0,0.09,0,0.18-0.01,0.26c0,0.09,0,0.16-0.01,0.24
				c-0.01,0.14-0.04,0.26-0.07,0.37c-0.03,0.1-0.08,0.19-0.13,0.26c-0.06,0.08-0.13,0.14-0.22,0.18c-0.19,0.09-0.45,0.13-0.81,0.15
				c-0.07,0.01-0.14,0.01-0.22,0.01h-10.87c-0.27,0-0.5-0.02-0.68-0.06c-0.1-0.02-0.18-0.04-0.25-0.08
				c-0.07-0.04-0.13-0.08-0.18-0.13c-0.22-0.2-0.3-0.53-0.3-1.06c-0.03-2.95-0.03-5.91-0.02-8.87
				C710.73,326.023,710.81,325.723,711.02,325.523z M708.5,326.523c0,2.96,0,5.92-0.01,8.87c0,0.98-0.31,1.28-1.29,1.28h-11.09
				c-1.04,0-1.37-0.31-1.38-1.37c0-0.76,0-1.52-0.01-2.29v-2.52c0-1.32,0.01-2.66,0.01-3.99c0-0.45,0.09-0.76,0.29-0.96
				c0.02-0.02,0.04-0.04,0.06-0.05c0.09-0.08,0.2-0.13,0.33-0.17c0.16-0.04,0.35-0.06,0.58-0.06c0.63-0.01,1.27-0.01,1.9-0.01h3.79
				v-0.01h5.55C708.22,325.243,708.49,325.523,708.5,326.523z M678.73,326.573c0-0.25,0.02-0.46,0.08-0.63
				c0.01-0.09,0.04-0.16,0.08-0.23c0.04-0.07,0.08-0.13,0.14-0.18c0.1-0.1,0.23-0.17,0.4-0.21c0.03-0.01,0.05-0.01,0.08-0.02
				c0.07-0.02,0.14-0.03,0.21-0.03c0.11-0.02,0.22-0.02,0.35-0.02c2.37-0.01,4.73-0.01,7.1-0.01h3.84c1.29,0,1.48,0.21,1.48,1.52
				c0.01,2.84,0.01,5.67,0.01,8.5c-0.01,0.28-0.02,0.52-0.07,0.7c-0.02,0.07-0.03,0.13-0.06,0.19c-0.02,0.06-0.05,0.11-0.08,0.15
				c-0.03,0.05-0.07,0.09-0.12,0.13c-0.01,0.01-0.02,0.02-0.04,0.03c-0.04,0.03-0.09,0.06-0.15,0.08c-0.05,0.03-0.11,0.05-0.18,0.06
				c-0.09,0.03-0.19,0.04-0.31,0.05c-0.11,0.01-0.24,0.01-0.38,0.01c-1.31,0.01-2.62,0.01-3.94,0.01h-1.53c0,0,0,0,0-0.01
				c-1.87,0-3.75,0.01-5.62,0c-0.25,0-0.46-0.02-0.63-0.08c-0.08-0.02-0.13-0.04-0.19-0.08c-0.06-0.02-0.11-0.06-0.15-0.1
				c-0.06-0.06-0.12-0.12-0.16-0.2c-0.04-0.06-0.06-0.11-0.08-0.19c-0.02-0.08-0.04-0.18-0.05-0.28c-0.01-0.03-0.01-0.07-0.01-0.11
				c-0.01-0.04-0.01-0.07-0.01-0.11c-0.01-0.05-0.01-0.09-0.01-0.14c-0.01-0.78-0.01-1.57-0.01-2.36v-0.01
				C678.72,330.853,678.72,328.713,678.73,326.573z M667.93,326.843c0-0.16,0.01-0.3,0.02-0.44c0.02-0.13,0.04-0.26,0.07-0.36
				c0.03-0.12,0.07-0.21,0.12-0.3c0.05-0.09,0.11-0.17,0.18-0.24c0.27-0.27,0.71-0.38,1.35-0.39c0.03-0.01,0.05-0.01,0.08-0.01
				c0.27,0,0.54,0,0.81,0.01c0.22,0,0.42,0.03,0.59,0.09c0.05,0.01,0.1,0.03,0.14,0.05c0.11,0.05,0.21,0.11,0.3,0.18
				c0.03,0.01,0.06,0.04,0.09,0.07c0.04,0.04,0.08,0.09,0.11,0.14c0.07,0.08,0.12,0.16,0.15,0.26c0.02,0.04,0.04,0.09,0.05,0.15
				c0.03,0.06,0.04,0.14,0.05,0.22c0.02,0.11,0.03,0.22,0.03,0.35c0.02,1.77,0.01,3.53,0.01,5.32v5.18c0,0.01,0,0.01,0,0.02
				c0,0.14-0.01,0.26-0.03,0.37c-0.01,0.1-0.03,0.19-0.06,0.27c-0.02,0.07-0.04,0.13-0.07,0.19c-0.03,0.07-0.06,0.14-0.1,0.2
				c-0.03,0.06-0.08,0.12-0.13,0.17c-0.02,0.02-0.04,0.04-0.07,0.06c-0.04,0.04-0.09,0.07-0.14,0.1c-0.05,0.03-0.1,0.06-0.16,0.08
				c-0.06,0.04-0.12,0.06-0.19,0.07c-0.07,0.03-0.14,0.05-0.22,0.05c-0.14,0.03-0.29,0.04-0.45,0.04c-0.25,0-0.48,0.01-0.68-0.01
				c-0.02,0.01-0.03,0.01-0.06,0c-0.04,0-0.08-0.01-0.11-0.01h-0.01c-0.23-0.01-0.42-0.04-0.59-0.06c-0.07-0.01-0.14-0.02-0.2-0.04
				c-0.12-0.02-0.23-0.07-0.32-0.13c-0.07-0.04-0.13-0.09-0.18-0.15c-0.13-0.13-0.21-0.31-0.27-0.55c-0.02-0.06-0.03-0.13-0.04-0.2
				c-0.06-0.34-0.07-0.79-0.07-1.36V326.843z M663.11,326.563c0-0.06,0-0.11,0.01-0.16c0-0.07,0.01-0.12,0.03-0.18
				c0-0.06,0.01-0.12,0.03-0.17c0.02-0.1,0.05-0.19,0.09-0.26c0.04-0.08,0.08-0.15,0.13-0.22c0.04-0.06,0.09-0.11,0.15-0.15
				c0.05-0.04,0.1-0.08,0.16-0.11c0.02-0.01,0.05-0.03,0.07-0.03c0.04-0.02,0.07-0.03,0.11-0.04c0.27-0.11,0.63-0.14,1.09-0.14
				c0.25,0,0.5-0.01,0.74,0c0.25,0.01,0.47,0.04,0.66,0.11c0.19,0.06,0.35,0.16,0.47,0.28s0.22,0.28,0.28,0.46
				c0.07,0.19,0.1,0.41,0.1,0.66c0.01,1.77,0,3.55,0,5.32v5.18c0,0.29-0.03,0.53-0.1,0.73c-0.06,0.21-0.16,0.37-0.29,0.5
				s-0.3,0.23-0.5,0.3c-0.21,0.06-0.45,0.1-0.73,0.1c-0.8,0.01-1.34-0.01-1.72-0.14c-0.06-0.02-0.11-0.04-0.16-0.07
				c-0.12-0.05-0.21-0.13-0.29-0.23c-0.07-0.09-0.12-0.19-0.17-0.31s-0.08-0.25-0.1-0.4c-0.01-0.07-0.02-0.15-0.03-0.24
				c-0.01-0.08-0.02-0.17-0.02-0.27c-0.01-0.08-0.01-0.16-0.01-0.24c-0.01-0.17-0.01-0.35-0.01-0.55v-3.29
				c-0.01-2.01-0.02-4.02-0.01-6.03C663.09,326.823,663.09,326.683,663.11,326.563z M642.96,335.393c0-0.8-0.01-1.6-0.01-2.39
				c-0.01-2.16-0.02-4.32-0.01-6.48c0-0.25,0.02-0.45,0.07-0.62c0.04-0.17,0.11-0.3,0.22-0.39c0.2-0.2,0.52-0.27,1.01-0.27
				c1.43-0.01,2.87,0,4.3,0h1.31v0.01h1.2c1.45,0,2.9-0.01,4.35,0c1.03,0,1.31,0.28,1.31,1.32v8.8c0,0.05,0,0.09-0.01,0.14
				c0,0.03,0,0.07-0.01,0.1c0,0.03,0,0.06-0.01,0.09c0,0.08-0.02,0.16-0.03,0.22c-0.01,0.07-0.03,0.13-0.06,0.19
				c-0.02,0.08-0.06,0.15-0.12,0.21c-0.02,0.02-0.03,0.04-0.05,0.06s-0.04,0.04-0.06,0.05c-0.05,0.04-0.11,0.07-0.17,0.1
				c-0.19,0.09-0.44,0.13-0.76,0.13c-1.46,0-2.92,0.01-4.38,0c-0.84,0.01-1.67,0.01-2.51,0.01h-4.27c-0.12,0-0.23,0-0.33-0.02
				c-0.07,0-0.13-0.01-0.19-0.03c-0.04,0-0.07-0.01-0.1-0.02c-0.06-0.01-0.11-0.03-0.16-0.06c-0.04-0.02-0.08-0.04-0.12-0.07
				c-0.16-0.09-0.27-0.24-0.33-0.46c-0.01-0.03-0.02-0.06-0.02-0.09c-0.03-0.12-0.05-0.26-0.05-0.41
				C642.96,335.473,642.96,335.433,642.96,335.393z"/>
			<path fill="#C42700" d="M615.06,320.663h-67.83c-1.04,0-2.07,0-3.1,0.01c-3.35,0-6.69,0.02-10.03-0.01
				c-0.99,0-1.96-0.01-2.93-0.03c-2.32-0.03-4.54,0.3-6.73,1.06c-0.99,0.35-1.96,0.72-2.9,1.16c-1.62,0.71-3.15,1.57-4.57,2.63
				c-0.52,0.39-1.01,0.79-1.48,1.23c-0.45,0.41-0.86,0.83-1.24,1.27c-1.17,1.31-2.08,2.75-2.74,4.31c-0.73,1.69-1.17,3.52-1.32,5.47
				c-0.03,0.34-0.05,0.67-0.05,0.99c0,0.23,0,0.45,0.02,0.67c0.01,0.22,0.03,0.44,0.05,0.65c0,0.06,0.01,0.12,0.02,0.18
				c0.01,0.14,0.04,0.28,0.07,0.41c0.01,0.1,0.04,0.2,0.06,0.3c0.02,0.13,0.05,0.26,0.09,0.38c0.04,0.12,0.07,0.24,0.11,0.36
				c0.04,0.11,0.08,0.22,0.12,0.33c0.2,0.53,0.48,1.02,0.81,1.46c1.08,1.43,2.82,2.4,5.27,2.96c1.74,0.4,3.55,0.59,5.33,0.59
				c18.22,0.04,36.44,0.03,54.67,0.03h10.03c0.84,0,1.67,0,2.51-0.01c4.18,0,8.36-0.01,12.54-0.01h0.01c0.85,0,1.67-0.01,2.51,0
				c2.29-0.01,4.59-0.01,6.89-0.01c6.06,0,12.12,0.01,18.2,0.02h1.76v-26.38C625.83,320.673,620.45,320.673,615.06,320.663z
				 M606.19,331.933c0-1.77-0.01-3.55,0.01-5.32c0.01-0.51,0.13-0.87,0.38-1.12c0.12-0.12,0.28-0.22,0.47-0.28
				c0.18-0.07,0.4-0.1,0.65-0.11c0.25-0.01,0.5,0,0.74,0c0.19,0,0.36,0,0.51,0.02l0.21,0.03c0.02,0,0.04,0,0.06,0.01
				c0.19,0.02,0.36,0.07,0.49,0.15c0.04,0.02,0.09,0.05,0.13,0.08c0.04,0.02,0.07,0.05,0.1,0.09c0.11,0.1,0.19,0.24,0.25,0.4
				c0.05,0.14,0.08,0.29,0.11,0.47c0.02,0.19,0.03,0.39,0.03,0.62c0.01,2.01,0,4.01-0.01,6.03v0.01c0.01,0.09,0.01,0.18,0.01,0.26
				c0,0.09,0,0.17-0.01,0.26c0.01,0.31,0.01,0.61,0.01,0.9c0,0.3,0,0.6-0.01,0.9v0.96c0,0.87-0.04,1.44-0.22,1.82
				c-0.03,0.06-0.06,0.12-0.1,0.17c-0.07,0.1-0.17,0.18-0.29,0.24c-0.08,0.04-0.17,0.08-0.27,0.11c-0.11,0.03-0.25,0.05-0.38,0.07
				c-0.33,0.04-0.74,0.05-1.24,0.04c-0.29,0-0.53-0.04-0.73-0.1c-0.21-0.07-0.37-0.17-0.5-0.3c-0.26-0.26-0.38-0.66-0.39-1.23v-5.17
				c0,0,0,0-0.01,0V331.933z M601.34,331.953h0.01v-5.33c0-0.25,0.04-0.48,0.11-0.66c0.06-0.19,0.15-0.34,0.28-0.46
				c0.07-0.06,0.14-0.12,0.22-0.17c0.16-0.09,0.34-0.15,0.56-0.19c0.11-0.02,0.23-0.03,0.35-0.03c0.27-0.01,0.54-0.01,0.81-0.01
				c0.03,0,0.05,0,0.08,0.01c0.08,0,0.16,0,0.23,0.01c0.15,0,0.29,0.02,0.41,0.05c0.07,0.01,0.13,0.03,0.18,0.04
				c0.08,0.02,0.16,0.05,0.23,0.09c0.02,0.01,0.05,0.02,0.08,0.04c0.05,0.03,0.1,0.06,0.15,0.11c0.04,0.02,0.07,0.05,0.1,0.09
				c0.11,0.12,0.19,0.26,0.24,0.44c0.02,0.04,0.03,0.08,0.04,0.12c0.01,0.01,0.01,0.02,0.01,0.03c0.02,0.07,0.03,0.14,0.04,0.22
				c0.02,0.15,0.03,0.31,0.03,0.49c-0.01,2.05-0.01,4.11-0.01,6.16v3.23c0,0.21,0,0.41-0.01,0.59c0,0.09,0,0.18-0.01,0.26
				c0,0.08-0.01,0.16-0.02,0.24c0,0.1-0.02,0.2-0.03,0.28c-0.01,0.08-0.03,0.16-0.05,0.23c-0.02,0.09-0.05,0.17-0.08,0.24
				c-0.02,0.06-0.05,0.11-0.09,0.16c-0.03,0.05-0.06,0.09-0.1,0.12c-0.04,0.04-0.08,0.08-0.13,0.11c-0.03,0.03-0.07,0.05-0.11,0.07
				c-0.04,0.02-0.08,0.03-0.12,0.05c-0.01,0.01-0.03,0.02-0.04,0.02c-0.01,0.01-0.03,0.01-0.05,0.01c-0.04,0.01-0.08,0.03-0.13,0.04
				c-0.05,0.02-0.1,0.03-0.16,0.03c-0.07,0.01-0.14,0.02-0.22,0.03c-0.04,0.01-0.08,0.01-0.12,0.01c-0.18,0.02-0.38,0.03-0.61,0.03
				c-0.14,0-0.28-0.01-0.44-0.01c-0.14,0-0.27-0.01-0.39-0.03c-0.11-0.01-0.2-0.03-0.29-0.06c-0.08-0.02-0.16-0.05-0.23-0.09
				c-0.053-0.02-0.096-0.051-0.14-0.08c-0.02-0.02-0.05-0.03-0.07-0.05l-0.01-0.01c-0.07-0.05-0.14-0.12-0.19-0.19
				c-0.03-0.02-0.04-0.04-0.05-0.06c-0.02-0.03-0.04-0.06-0.06-0.1c-0.01-0.03-0.03-0.07-0.04-0.11c-0.01-0.01-0.01-0.02-0.02-0.03
				c-0.01-0.02-0.02-0.03-0.02-0.05c-0.02-0.04-0.03-0.09-0.04-0.14c-0.02-0.07-0.03-0.13-0.04-0.21c-0.01-0.03-0.01-0.05-0.01-0.08
				c0-0.01-0.01-0.03-0.01-0.04c-0.01-0.09-0.02-0.19-0.02-0.3V331.953z M580.93,326.763c0-1.31,0.19-1.52,1.49-1.52
				c3.64,0,7.29,0,10.94,0.01c1.01,0,1.32,0.31,1.33,1.32c0.01,2.14,0.01,4.28,0.01,6.43c0,0,0,0,0,0.01v2.36
				c0,0.05,0,0.09-0.01,0.14c0,0.03,0,0.07-0.01,0.1c0,0.03,0,0.06-0.01,0.09c0,0.04,0,0.07-0.01,0.1
				c-0.01,0.05-0.01,0.09-0.03,0.13c0,0.02,0,0.04-0.01,0.06c-0.02,0.06-0.04,0.12-0.07,0.17c0,0.01,0,0.01,0,0.01
				c-0.03,0.07-0.07,0.13-0.12,0.18c-0.03,0.04-0.07,0.07-0.11,0.09c-0.03,0.03-0.06,0.05-0.09,0.06c-0.19,0.11-0.46,0.16-0.82,0.16
				c-1.37,0.01-2.74,0-4.11,0h-1.51c0,0.01,0,0.01,0,0.01h-1c-1.49,0-2.98,0-4.47-0.01c-0.19,0-0.36-0.01-0.5-0.03
				c-0.07,0-0.13-0.01-0.19-0.03c-0.04,0-0.08-0.02-0.12-0.04c-0.07-0.02-0.14-0.05-0.19-0.09c-0.14-0.08-0.24-0.21-0.29-0.39
				c-0.05-0.15-0.08-0.34-0.09-0.57c-0.01-0.08-0.01-0.16-0.01-0.25v-2.26C580.92,330.923,580.93,328.843,580.93,326.763z
				 M564.93,326.523c0-1,0.27-1.28,1.27-1.28c1.85-0.01,3.69,0,5.54,0v0.01h2.51c0.83,0,1.67,0,2.51,0.01h0.68
				c0.23,0,0.42,0.02,0.58,0.06c0.13,0.04,0.24,0.09,0.33,0.17c0.02,0.01,0.04,0.03,0.06,0.05c0.1,0.1,0.17,0.22,0.21,0.38
				c0.02,0.06,0.04,0.13,0.04,0.2c0,0,0.01,0.01,0,0.02c0.02,0.11,0.03,0.23,0.03,0.36c0.01,1.75,0.02,3.5,0.02,5.25v1.26
				c-0.01,0.76-0.01,1.53-0.01,2.29c0,0.07,0,0.14-0.01,0.21c0,0.13-0.02,0.24-0.04,0.34c-0.01,0.04-0.01,0.08-0.03,0.11
				c0,0.03-0.01,0.05-0.02,0.08c-0.01,0.02-0.02,0.04-0.03,0.06c0,0.03-0.01,0.05-0.03,0.07c-0.01,0.02-0.02,0.03-0.03,0.04
				c0,0.01,0,0.01-0.01,0.02c0.01,0.01,0,0.01-0.01,0.02c-0.02,0.05-0.06,0.09-0.1,0.13c-0.01,0.02-0.03,0.04-0.05,0.04
				c-0.01,0.02-0.01,0.02-0.02,0.01c-0.07,0.07-0.15,0.11-0.24,0.13c-0.06,0.03-0.13,0.05-0.2,0.06c-0.07,0.02-0.13,0.03-0.21,0.03
				c-0.11,0.02-0.23,0.02-0.36,0.02h-11.09c-0.25,0-0.45-0.02-0.61-0.06c-0.17-0.04-0.3-0.11-0.4-0.21c-0.1-0.1-0.17-0.23-0.21-0.4
				c-0.02-0.08-0.04-0.17-0.05-0.27c-0.01-0.11-0.02-0.22-0.02-0.34V326.523z M548.92,332.323c0-1.93,0-3.85,0.01-5.77
				c0-1.04,0.26-1.3,1.33-1.3h5.54v-0.01h5.62c0.22,0,0.41,0.02,0.57,0.06c0.05,0.02,0.1,0.03,0.14,0.05
				c0.04,0.01,0.07,0.02,0.1,0.04c0.04,0.04,0.08,0.06,0.12,0.09c0.06,0.04,0.11,0.09,0.15,0.15c0.01,0,0.01,0.01,0.01,0.02
				c0.02,0.02,0.03,0.04,0.04,0.06c0.1,0.19,0.15,0.43,0.15,0.76v2.22c0.01,1.44,0.01,2.89-0.01,4.32c0,0.78,0,1.55-0.01,2.33
				c-0.01,0.14-0.01,0.26-0.03,0.36c-0.01,0.11-0.02,0.21-0.05,0.3c-0.11,0.42-0.38,0.6-0.91,0.65c-0.06,0.01-0.13,0.01-0.2,0.01
				c-0.07,0.01-0.14,0.01-0.22,0.01H550.4c-0.08,0-0.15,0-0.22-0.01c-0.48-0.02-0.79-0.09-0.98-0.27c-0.04-0.04-0.07-0.09-0.1-0.14
				c-0.03-0.05-0.06-0.1-0.08-0.16c-0.04-0.13-0.06-0.29-0.08-0.47c-0.01-0.13-0.02-0.26-0.02-0.42V332.323z M538.26,325.383
				c0.07-0.04,0.15-0.07,0.24-0.09c0.23-0.06,0.53-0.09,0.9-0.09c0.21-0.01,0.44-0.01,0.69-0.01c0.15,0,0.28,0.01,0.41,0.03
				c0.11,0.01,0.23,0.03,0.32,0.06c0.01,0,0.02,0.01,0.04,0.01c0.07,0.03,0.14,0.05,0.2,0.09c0.01-0.01,0.02,0.01,0.02,0.01
				c0.03,0.01,0.05,0.03,0.07,0.04c0.01-0.01,0.01-0.01,0.01,0c0.02,0,0.04,0.02,0.05,0.04l0.01,0.01c0.05,0.02,0.09,0.05,0.13,0.1
				c0.03,0.04,0.06,0.07,0.09,0.11c0.08,0.08,0.13,0.18,0.16,0.29c0.02,0.04,0.03,0.1,0.04,0.15c0.03,0.08,0.05,0.17,0.06,0.26
				c0.01,0.06,0.02,0.12,0.02,0.18c0.01,0.09,0.01,0.19,0.01,0.29v1.12c0.01,1.67,0,3.36,0,5.03c0.01,1.13,0,2.26,0,3.39
				c0,1.54-0.12,2.14-0.92,2.35c-0.37,0.09-0.88,0.1-1.59,0.08c-0.25,0-0.47-0.03-0.65-0.08c-0.15-0.04-0.29-0.1-0.4-0.19
				c-0.03-0.01-0.06-0.03-0.09-0.06c-0.04-0.03-0.08-0.06-0.11-0.1c-0.08-0.08-0.14-0.17-0.19-0.27c-0.02-0.04-0.04-0.07-0.05-0.11
				c-0.03-0.07-0.05-0.15-0.07-0.24c-0.02-0.07-0.03-0.15-0.04-0.23c-0.01-0.11-0.02-0.23-0.02-0.36c-0.01-1.39-0.01-2.79-0.01-4.18
				v-1.06h0.01v-4.3c0-0.15,0-0.3,0.01-0.43c0-0.14,0-0.27,0.01-0.38c0.01-0.25,0.03-0.46,0.07-0.64c0.02-0.08,0.03-0.16,0.06-0.23
				c0.02-0.07,0.04-0.13,0.08-0.19c0.03-0.06,0.07-0.12,0.11-0.17c0.04-0.05,0.09-0.09,0.14-0.13
				C538.13,325.433,538.19,325.403,538.26,325.383z M511.51,335.243c0.08-0.29,0.17-0.58,0.26-0.87c0.04-0.15,0.09-0.3,0.14-0.45
				c0.04-0.14,0.09-0.28,0.14-0.41c0.05-0.17,0.11-0.34,0.18-0.5c0.08-0.2,0.16-0.39,0.25-0.58c0.14-0.3,0.29-0.59,0.44-0.88
				c0.02-0.05,0.05-0.1,0.08-0.14c0.01-0.03,0.03-0.06,0.05-0.09c0.16-0.31,0.33-0.59,0.51-0.87c0.19-0.31,0.39-0.6,0.61-0.89
				c0.01-0.01,0-0.01,0-0.01c0.18-0.25,0.37-0.49,0.57-0.73c0.03-0.03,0.06-0.07,0.09-0.1c0.21-0.26,0.43-0.5,0.65-0.74h0.01
				c0.02-0.01,0.03-0.03,0.04-0.04s0.01-0.02,0.01-0.02c0.23-0.24,0.48-0.48,0.73-0.7c0.47-0.43,0.96-0.83,1.47-1.19
				c0.23-0.17,0.46-0.33,0.69-0.48c0.03-0.03,0.07-0.06,0.1-0.07c0.32-0.21,0.64-0.41,0.97-0.6c0.24-0.14,0.48-0.27,0.72-0.39
				c0.11-0.07,0.23-0.13,0.34-0.19c0.31-0.15,0.62-0.31,0.94-0.45c0.02,0,0.03-0.01,0.04-0.02c0.63-0.28,1.28-0.54,1.95-0.78
				c0.34-0.12,0.68-0.24,1.03-0.35c0.35-0.11,0.7-0.22,1.06-0.33c0.01,0,0.01,0,0.03,0c0.16,0,0.43,0.18,0.48,0.32
				c0.12,0.42,0.25,0.83,0.37,1.25c0.06,0.21,0.12,0.42,0.17,0.63c0.06,0.21,0.11,0.42,0.15,0.63c0.04,0.14,0.06,0.27,0.08,0.41
				c0.01,0.05,0.01,0.11,0.02,0.17c0.02,0.09,0.03,0.18,0.04,0.27c0.01,0.08,0.01,0.16,0.01,0.24c0,0.01,0,0.01,0,0.01
				c0.01,0.17,0.02,0.33,0.02,0.5c0,0.38-0.03,0.74-0.08,1.09c-0.03,0.17-0.06,0.34-0.1,0.51c-0.04,0.17-0.08,0.34-0.13,0.5
				c-0.18,0.6-0.44,1.16-0.77,1.68c-0.22,0.35-0.46,0.67-0.73,0.98c-0.08,0.1-0.16,0.19-0.25,0.28c-0.08,0.09-0.16,0.18-0.26,0.27
				c-0.24,0.24-0.49,0.47-0.76,0.69c-0.27,0.22-0.56,0.44-0.85,0.64c-0.67,0.46-1.37,0.86-2.08,1.2c-0.25,0.12-0.51,0.24-0.76,0.34
				c-0.29,0.12-0.58,0.23-0.88,0.33c-0.25,0.09-0.5,0.17-0.76,0.24c-0.61,0.19-1.24,0.34-1.88,0.46c-0.27,0.06-0.54,0.11-0.81,0.15
				c-0.26,0.04-0.51,0.08-0.77,0.12c-0.33,0.05-0.67,0.09-1.01,0.12c-0.89,0.09-1.79,0.1-2.69,0.14c-0.06-0.09-0.13-0.19-0.19-0.29
				C511.3,335.923,511.4,335.583,511.51,335.243z M533.52,338.683c-0.04-0.01-0.09-0.03-0.13-0.06c-0.12-0.05-0.22-0.13-0.3-0.23
				c-0.02-0.02-0.04-0.04-0.05-0.07c-0.04-0.04-0.06-0.08-0.09-0.13c-0.08-0.15-0.13-0.33-0.16-0.55c-0.04-0.21-0.05-0.46-0.05-0.76
				v-9.16c0-0.56,0.01-0.99,0.06-1.33c0.01-0.09,0.02-0.17,0.04-0.24c0-0.01,0-0.01,0-0.02c0.02-0.06,0.03-0.12,0.06-0.18l0.01-0.01
				c0.02-0.05,0.04-0.1,0.06-0.14c0.03-0.06,0.06-0.11,0.1-0.16c0.03-0.04,0.07-0.08,0.11-0.11c0.03-0.03,0.05-0.05,0.08-0.06
				c0.06-0.04,0.12-0.08,0.19-0.1c0.07-0.04,0.14-0.06,0.23-0.07c0.04-0.02,0.08-0.03,0.13-0.03c0.09-0.01,0.18-0.03,0.29-0.03
				c0.31-0.03,0.7-0.04,1.17-0.03c0.12,0,0.24,0.01,0.34,0.02c0.06,0,0.12,0.01,0.18,0.03c0.06,0,0.11,0.01,0.16,0.03
				c0.02,0.01,0.04,0.01,0.06,0.02c0.07,0.01,0.13,0.04,0.19,0.08c0.06,0.02,0.11,0.05,0.16,0.09c0.04,0.03,0.09,0.06,0.13,0.1
				c0.02,0.02,0.04,0.04,0.05,0.06c0.04,0.04,0.08,0.09,0.11,0.14c0.04,0.06,0.07,0.13,0.1,0.21c0.01,0.03,0.02,0.06,0.03,0.09
				c0.01,0.02,0.02,0.04,0.02,0.06c0.02,0.09,0.04,0.18,0.05,0.28c0.02,0.12,0.03,0.26,0.03,0.41v1.15c0.01,1.34,0,2.68,0,4.02
				c0,0,0,0,0.01,0v1.01c0,1.43,0.01,2.87-0.01,4.3v0.01c-0.01,0.79-0.3,1.25-0.92,1.43c-0.16,0.04-0.35,0.07-0.57,0.08
				c-0.22,0.01-0.45,0-0.67,0c-0.4,0-0.71-0.02-0.98-0.08h-0.01C533.65,338.733,533.58,338.713,533.52,338.683z M630.48,333.013
				c0,0.79-0.01,1.59-0.01,2.38c0,0.04,0,0.08-0.01,0.12c0,0.09-0.01,0.18-0.02,0.26c0,0.06-0.02,0.12-0.03,0.17
				c-0.01,0.02-0.02,0.04-0.02,0.07c-0.03,0.12-0.09,0.23-0.17,0.31c-0.02,0.04-0.05,0.07-0.09,0.1c-0.03,0.04-0.06,0.06-0.1,0.08
				c-0.01,0.01-0.03,0.02-0.04,0.02c-0.04,0.02-0.08,0.04-0.13,0.05c-0.05,0.02-0.1,0.04-0.16,0.05c-0.07,0.02-0.16,0.03-0.25,0.03
				c-0.09,0.02-0.18,0.02-0.29,0.02c-3.72,0-7.45,0-11.17-0.01c-0.12,0-0.23,0-0.33-0.02c-0.1-0.01-0.19-0.02-0.27-0.05
				c-0.15-0.04-0.27-0.1-0.36-0.18c-0.05-0.04-0.09-0.09-0.11-0.14c-0.02-0.01-0.03-0.03-0.03-0.04c-0.03-0.05-0.06-0.11-0.08-0.18
				c-0.02-0.06-0.04-0.12-0.05-0.19c-0.02-0.1-0.03-0.22-0.03-0.35c-0.01-0.05-0.01-0.09-0.01-0.14v-8.8c0-0.1,0-0.19,0.01-0.27
				c0-0.05,0.01-0.1,0.01-0.14c0.01-0.06,0.01-0.11,0.03-0.16c0-0.05,0.01-0.09,0.03-0.13c0.01-0.07,0.04-0.12,0.06-0.17
				c0.04-0.08,0.08-0.14,0.13-0.18c0.2-0.2,0.52-0.27,1.04-0.27c1.85-0.01,3.69,0,5.54,0v-0.01c1.87,0,3.75-0.01,5.62,0
				c0.98,0,1.29,0.29,1.29,1.28c0.01,2.16,0.01,4.31,0,6.48V333.013z"/>
		</g>
	</g>
	<g>
		<g>
			<path fill="#E09397" d="M762.239,336.257c-0.065,0.096-0.132,0.194-0.197,0.29c-0.895-0.046-1.794-0.055-2.685-0.145
				c-3.201-0.324-6.273-1.095-8.955-2.957c-2.561-1.779-4.189-4.131-3.891-7.397c0.104-1.135,0.515-2.245,0.829-3.355
				c0.041-0.148,0.376-0.351,0.512-0.312c5.664,1.653,10.489,4.437,13.096,10.05C761.512,333.644,761.815,334.979,762.239,336.257z"
				/>
			<path fill="#E09397" d="M740.681,336.883c-0.001,1.184-0.218,1.687-0.99,1.869h-2.226c-0.619-0.181-0.912-0.636-0.919-1.434
				c-0.015-1.772-0.004-3.545-0.004-5.318h0.004c0-1.724-0.012-3.449,0.003-5.173c0.01-1.169,0.462-1.606,1.613-1.621
				c2.328-0.03,2.516,0.158,2.516,2.515C740.678,330.775,740.686,333.83,740.681,336.883z"/>
			<path fill="#E09397" d="M735.83,337.197c-0.004,0.882-0.303,1.369-0.971,1.556h-2.241c-0.801-0.207-0.925-0.811-0.927-2.353
				c-0.003-3.179-0.007-6.358-0.003-9.539c0.001-1.196,0.465-1.653,1.649-1.668c2.287-0.03,2.492,0.175,2.491,2.464v4.289h0.004
				C735.833,333.697,735.84,335.446,735.83,337.197z"/>
			<path fill="#E09397" d="M724.5,335.204c-0.003,1.228-0.247,1.465-1.474,1.467c-3.623,0.001-7.245,0.003-10.868,0
				c-1.092-0.001-1.394-0.253-1.405-1.326c-0.03-2.956-0.034-5.913-0.025-8.87c0.003-0.91,0.354-1.227,1.279-1.231
				c1.872-0.007,3.746-0.001,5.618-0.001v0.006c1.849,0,3.697-0.006,5.544,0.003c1.067,0.004,1.325,0.262,1.328,1.304
				C724.501,329.437,724.502,332.32,724.5,335.204z"/>
			<path fill="#E09397" d="M708.489,335.397c-0.002,0.975-0.306,1.273-1.286,1.274c-3.696,0.003-7.393,0.003-11.09-0.001
				c-1.046-0.001-1.377-0.312-1.382-1.365c-0.012-2.934-0.01-5.866,0.004-8.799c0.006-0.922,0.34-1.246,1.255-1.251
				c1.897-0.01,3.795-0.003,5.692-0.003v-0.015c1.849,0,3.697-0.004,5.546,0.003c0.995,0.003,1.265,0.278,1.267,1.283
				C708.5,329.483,708.497,332.44,708.489,335.397z"/>
			<path fill="#E09397" d="M692.497,335.267c-0.003,1.14-0.269,1.4-1.388,1.402c-1.823,0.004-3.647,0.001-5.47,0.001
				c0,0,0-0.001,0-0.003c-1.872,0-3.745,0.006-5.617-0.001c-0.953-0.003-1.286-0.332-1.289-1.298
				c-0.007-2.932-0.004-5.864,0.006-8.796c0.003-1.012,0.318-1.317,1.332-1.319c3.647-0.009,7.294-0.015,10.941-0.01
				c1.294,0.001,1.482,0.206,1.483,1.524C692.499,329.6,692.505,332.434,692.497,335.267z"/>
			<path fill="#E09397" d="M672.078,337.119c-0.003,1.122-0.497,1.61-1.622,1.628c-2.299,0.034-2.522-0.192-2.521-2.516
				c0.003-3.129-0.003-6.258-0.006-9.387c0-1.268,0.453-1.723,1.741-1.738c0.296-0.004,0.592-0.007,0.887,0.001
				c0.996,0.028,1.504,0.518,1.513,1.514c0.015,1.775,0.004,3.548,0.004,5.322h0.007
				C672.081,333.669,672.085,335.393,672.078,337.119z"/>
			<path fill="#E09397" d="M667.232,331.934c-0.001,0-0.001,0-0.003,0c0,1.726,0.007,3.452-0.001,5.176
				c-0.006,1.14-0.485,1.612-1.619,1.634c-2.257,0.044-2.507-0.203-2.51-2.451c-0.003-3.105-0.013-6.21-0.01-9.317
				c0.001-1.486,0.41-1.88,1.896-1.877c0.246,0,0.493-0.006,0.739,0.001c1.005,0.03,1.498,0.506,1.505,1.511
				C667.242,328.385,667.232,330.159,667.232,331.934z"/>
			<path fill="#E09397" d="M656.707,326.576c0.002,2.932,0.002,5.864-0.003,8.796c-0.001,0.975-0.312,1.294-1.273,1.295
				c-3.721,0.006-7.442,0.009-11.163,0.006c-0.966,0-1.301-0.311-1.307-1.28c-0.021-2.957-0.027-5.914-0.019-8.872
				c0.003-0.987,0.317-1.279,1.294-1.28c1.872-0.004,3.745-0.001,5.617-0.001v0.009c1.849,0,3.697-0.003,5.544,0.001
				C656.43,325.253,656.707,325.534,656.707,326.576z"/>
			<path fill="#E09397" d="M630.465,335.393c-0.007,0.969-0.342,1.28-1.308,1.28c-3.721,0.003-7.442,0-11.163-0.006
				c-0.961-0.001-1.271-0.32-1.273-1.295c-0.003-2.932-0.004-5.864-0.003-8.796c0.001-1.042,0.278-1.323,1.31-1.326
				c1.849-0.004,3.696-0.001,5.544-0.001v-0.009c1.872,0,3.746-0.003,5.618,0.001c0.977,0.001,1.291,0.293,1.292,1.28
				C630.49,329.479,630.484,332.436,630.465,335.393z"/>
			<path fill="#E09397" d="M610.338,326.976c0.003,3.107-0.007,6.212-0.01,9.317c-0.002,2.248-0.253,2.495-2.509,2.451
				c-1.135-0.022-1.613-0.494-1.619-1.634c-0.009-1.724-0.003-3.45-0.003-5.176c-0.001,0-0.001,0-0.003,0
				c0-1.775-0.01-3.549,0.004-5.322c0.009-1.005,0.502-1.482,1.505-1.511c0.247-0.007,0.493-0.001,0.74-0.001
				C609.928,325.096,610.336,325.49,610.338,326.976z"/>
			<path fill="#E09397" d="M605.496,326.844c-0.003,3.129-0.007,6.258-0.004,9.387c0.001,2.324-0.222,2.55-2.521,2.516
				c-1.126-0.018-1.619-0.506-1.624-1.628c-0.006-1.726-0.001-3.45-0.001-5.174h0.007c0-1.775-0.012-3.548,0.004-5.322
				c0.007-0.996,0.515-1.486,1.511-1.514c0.296-0.009,0.592-0.006,0.887-0.001C605.045,325.121,605.498,325.576,605.496,326.844z"/>
			<path fill="#E09397" d="M594.693,335.368c-0.001,0.966-0.336,1.295-1.288,1.298c-1.872,0.007-3.746,0.001-5.618,0.001
				c0,0.001,0,0.003,0,0.003c-1.823,0-3.647,0.003-5.469-0.001c-1.119-0.001-1.387-0.262-1.39-1.402c-0.007-2.833,0-5.667,0.003-8.5
				c0.001-1.319,0.189-1.523,1.484-1.524c3.647-0.004,7.292,0.001,10.939,0.01c1.014,0.001,1.329,0.306,1.334,1.319
				C594.699,329.504,594.701,332.436,594.693,335.368z"/>
			<path fill="#E09397" d="M578.695,335.306c-0.004,1.052-0.336,1.363-1.382,1.365c-3.696,0.004-7.393,0.004-11.09,0.001
				c-0.98-0.001-1.283-0.299-1.286-1.274c-0.007-2.957-0.009-5.914-0.006-8.873c0.002-1.005,0.274-1.28,1.267-1.283
				c1.849-0.007,3.697-0.003,5.546-0.003v0.015c1.897,0,3.795-0.007,5.694,0.003c0.913,0.004,1.249,0.329,1.254,1.251
				C578.705,329.44,578.708,332.372,578.695,335.306z"/>
			<path fill="#E09397" d="M562.674,335.344c-0.012,1.073-0.312,1.325-1.406,1.326c-3.622,0.003-7.245,0.001-10.867,0
				c-1.227-0.001-1.473-0.238-1.474-1.467c-0.004-2.883-0.003-5.766,0.003-8.65c0.001-1.042,0.26-1.299,1.326-1.304
				c1.849-0.009,3.696-0.003,5.544-0.003v-0.006c1.874,0,3.746-0.006,5.618,0.001c0.925,0.004,1.277,0.321,1.28,1.231
				C562.707,329.431,562.704,332.388,562.674,335.344z"/>
			<path fill="#E09397" d="M541.734,336.399c-0.001,1.542-0.124,2.146-0.925,2.353h-2.241c-0.669-0.186-0.968-0.673-0.972-1.556
				c-0.009-1.751-0.003-3.5-0.003-5.251h0.004c0-1.43,0.001-2.86,0-4.289c0-2.29,0.206-2.494,2.491-2.464
				c1.186,0.015,1.649,0.472,1.65,1.668C541.743,330.041,541.737,333.22,541.734,336.399z"/>
			<path fill="#E09397" d="M536.88,337.319c-0.006,0.798-0.299,1.254-0.918,1.434h-2.226c-0.774-0.182-0.989-0.685-0.99-1.869
				c-0.006-3.053,0.002-6.108,0.003-9.162c0-2.356,0.186-2.544,2.515-2.515c1.151,0.015,1.603,0.451,1.613,1.621
				c0.015,1.724,0.004,3.449,0.004,5.173c0,0,0.001,0,0.003,0C536.884,333.774,536.894,335.547,536.88,337.319z"/>
			<path fill="#E09397" d="M523.023,333.445c-2.682,1.862-5.753,2.633-8.953,2.957c-0.891,0.09-1.791,0.099-2.686,0.145
				c-0.065-0.096-0.13-0.194-0.195-0.29c0.423-1.279,0.727-2.614,1.289-3.827c2.608-5.612,7.433-8.397,13.097-10.05
				c0.135-0.038,0.469,0.164,0.512,0.312c0.312,1.11,0.724,2.22,0.827,3.355C527.212,329.314,525.583,331.666,523.023,333.445z"/>
		</g>
	</g>
	<path fill="#EDEDED" d="M763.287,338.753c0.016,1.939-0.423,3.506-1.351,4.736H511.492c-0.928-1.23-1.368-2.797-1.351-4.736
		H763.287z"/>
	<path d="M642.162,320.687v26.383c-1.166,0.001-2.333,0.004-3.499,0.006c-0.403,0.001-0.807,0.001-1.209,0.003h-0.423
		c-0.107,0-0.212,0.012-0.318,0.028c-0.105-0.016-0.212-0.028-0.317-0.028h-0.422c-0.404-0.001-0.808-0.001-1.212-0.003
		c-1.184-0.001-2.368-0.004-3.552-0.006v-26.383c1.588,0.003,3.175,0.004,4.763,0.007c0.247,0,0.493,0,0.74,0.001
		c0.247-0.001,0.493-0.001,0.74-0.001C639.023,320.691,640.592,320.69,642.162,320.687z"/>
</g>
<g>
	<g>
		<path fill="#122125" d="M340.86,219.203v7.53h2.5v-7.53H340.86z M59.78,269.393v5.03h17.57v-5.03H59.78z M59.78,269.393v5.03
			h17.57v-5.03H59.78z M340.86,219.203v7.53h2.5v-7.53H340.86z M59.78,269.393v5.03h17.57v-5.03H59.78z M340.86,219.203v7.53h2.5
			v-7.53H340.86z M59.78,269.393v5.03h17.57v-5.03H59.78z M340.86,219.203v7.53h2.5v-7.53H340.86z M59.78,269.393v5.03h17.57v-5.03
			H59.78z M340.86,219.203v7.53h2.5v-7.53H340.86z M59.78,269.393v5.03h17.57v-5.03H59.78z M340.86,219.203v7.53h2.5v-7.53H340.86z
			 M59.78,269.393v5.03h17.57v-5.03H59.78z M340.86,219.203v7.53h2.5v-7.53H340.86z M59.78,269.393v5.03h17.57v-5.03H59.78z
			 M340.86,219.203v7.53h2.5v-7.53H340.86z M536.36,325.483c0.04,0.03,0.09,0.06,0.13,0.1c0.02,0.02,0.04,0.04,0.05,0.06
			c0.04,0.04,0.08,0.09,0.11,0.14c0.04,0.06,0.07,0.13,0.1,0.21c0.01,0.03,0.02,0.06,0.03,0.09c0.01,0.02,0.02,0.04,0.02,0.06
			c0.02,0.09,0.04,0.18,0.05,0.28c0.02,0.12,0.03,0.26,0.03,0.41v1.15h0.72v-0.33c0-0.15,0-0.3,0.01-0.43c0-0.14,0-0.27,0.01-0.38
			c0.01-0.25,0.03-0.46,0.07-0.64c0.02-0.08,0.03-0.16,0.06-0.23c0.02-0.07,0.04-0.13,0.08-0.19c0.03-0.06,0.07-0.12,0.11-0.17
			c0.04-0.05,0.09-0.09,0.14-0.13H536.36z M59.78,269.393v5.03h17.57v-5.03H59.78z M340.86,219.203v7.53h2.5v-7.53H340.86z
			 M59.78,269.393v5.03h17.57v-5.03H59.78z M340.86,219.203v7.53h2.5v-7.53H340.86z M59.78,269.393v5.03h17.57v-5.03H59.78z
			 M340.86,219.203v7.53h2.5v-7.53H340.86z M59.78,269.393v5.03h17.57v-5.03H59.78z M340.86,219.203v7.53h2.5v-7.53H340.86z
			 M59.78,269.393v5.03h17.57v-5.03H59.78z M340.86,219.203v7.53h2.5v-7.53H340.86z M59.78,269.393v5.03h17.57v-5.03H59.78z
			 M340.86,219.203v7.53h2.5v-7.53H340.86z M536.36,325.483c0.04,0.03,0.09,0.06,0.13,0.1c0.02,0.02,0.04,0.04,0.05,0.06
			c0.04,0.04,0.08,0.09,0.11,0.14c0.04,0.06,0.07,0.13,0.1,0.21c0.01,0.03,0.02,0.06,0.03,0.09c0.01,0.02,0.02,0.04,0.02,0.06
			c0.02,0.09,0.04,0.18,0.05,0.28c0.02,0.12,0.03,0.26,0.03,0.41v1.15h0.72v-0.33c0-0.15,0-0.3,0.01-0.43c0-0.14,0-0.27,0.01-0.38
			c0.01-0.25,0.03-0.46,0.07-0.64c0.02-0.08,0.03-0.16,0.06-0.23c0.02-0.07,0.04-0.13,0.08-0.19c0.03-0.06,0.07-0.12,0.11-0.17
			c0.04-0.05,0.09-0.09,0.14-0.13H536.36z M59.78,269.393v5.03h17.57v-5.03H59.78z M340.86,219.203v7.53h2.5v-7.53H340.86z
			 M536.36,325.483c0.04,0.03,0.09,0.06,0.13,0.1c0.02,0.02,0.04,0.04,0.05,0.06c0.04,0.04,0.08,0.09,0.11,0.14
			c0.04,0.06,0.07,0.13,0.1,0.21c0.01,0.03,0.02,0.06,0.03,0.09c0.01,0.02,0.02,0.04,0.02,0.06c0.02,0.09,0.04,0.18,0.05,0.28
			c0.02,0.12,0.03,0.26,0.03,0.41v1.15h0.72v-0.33c0-0.15,0-0.3,0.01-0.43c0-0.14,0-0.27,0.01-0.38c0.01-0.25,0.03-0.46,0.07-0.64
			c0.02-0.08,0.03-0.16,0.06-0.23c0.02-0.07,0.04-0.13,0.08-0.19c0.03-0.06,0.07-0.12,0.11-0.17c0.04-0.05,0.09-0.09,0.14-0.13
			H536.36z M59.78,269.393v5.03h17.57v-5.03H59.78z M340.86,219.203v7.53h2.5v-7.53H340.86z M536.36,325.483
			c0.04,0.03,0.09,0.06,0.13,0.1c0.02,0.02,0.04,0.04,0.05,0.06c0.04,0.04,0.08,0.09,0.11,0.14c0.04,0.06,0.07,0.13,0.1,0.21
			c0.01,0.03,0.02,0.06,0.03,0.09c0.01,0.02,0.02,0.04,0.02,0.06c0.02,0.09,0.04,0.18,0.05,0.28c0.02,0.12,0.03,0.26,0.03,0.41v1.15
			h0.72v-0.33c0-0.15,0-0.3,0.01-0.43c0-0.14,0-0.27,0.01-0.38c0.01-0.25,0.03-0.46,0.07-0.64c0.02-0.08,0.03-0.16,0.06-0.23
			c0.02-0.07,0.04-0.13,0.08-0.19c0.03-0.06,0.07-0.12,0.11-0.17c0.04-0.05,0.09-0.09,0.14-0.13H536.36z M59.78,269.393v5.03h17.57
			v-5.03H59.78z M340.86,219.203v7.53h2.5v-7.53H340.86z M536.36,325.483c0.04,0.03,0.09,0.06,0.13,0.1
			c0.02,0.02,0.04,0.04,0.05,0.06c0.04,0.04,0.08,0.09,0.11,0.14c0.04,0.06,0.07,0.13,0.1,0.21c0.01,0.03,0.02,0.06,0.03,0.09
			c0.01,0.02,0.02,0.04,0.02,0.06c0.02,0.09,0.04,0.18,0.05,0.28c0.02,0.12,0.03,0.26,0.03,0.41v1.15h0.72v-0.33
			c0-0.15,0-0.3,0.01-0.43c0-0.14,0-0.27,0.01-0.38c0.01-0.25,0.03-0.46,0.07-0.64c0.02-0.08,0.03-0.16,0.06-0.23
			c0.02-0.07,0.04-0.13,0.08-0.19c0.03-0.06,0.07-0.12,0.11-0.17c0.04-0.05,0.09-0.09,0.14-0.13H536.36z M59.78,269.393v5.03h17.57
			v-5.03H59.78z M340.86,219.203v7.53h2.5v-7.53H340.86z M536.36,325.483c0.04,0.03,0.09,0.06,0.13,0.1
			c0.02,0.02,0.04,0.04,0.05,0.06c0.04,0.04,0.08,0.09,0.11,0.14c0.04,0.06,0.07,0.13,0.1,0.21c0.01,0.03,0.02,0.06,0.03,0.09
			c0.01,0.02,0.02,0.04,0.02,0.06c0.02,0.09,0.04,0.18,0.05,0.28c0.02,0.12,0.03,0.26,0.03,0.41v1.15h0.72v-0.33
			c0-0.15,0-0.3,0.01-0.43c0-0.14,0-0.27,0.01-0.38c0.01-0.25,0.03-0.46,0.07-0.64c0.02-0.08,0.03-0.16,0.06-0.23
			c0.02-0.07,0.04-0.13,0.08-0.19c0.03-0.06,0.07-0.12,0.11-0.17c0.04-0.05,0.09-0.09,0.14-0.13H536.36z M802.61,348.063v-120.46
			h-52.7v10.05h-17.56v10.03h-45.18v100.38H576.76v-150.57H476.37v150.57h-47.68v-77.8h-32.63v-60.23h-65.24v62.75h-42.66v7.53
			h-5.03v5.01h-7.53v67.76H152.64v-95.36h-2.51v-7.53h-27.61v-40.16h-5.01v-5.01H82.37v-7.53H72.34v7.53h-5.03v-7.53H57.28v7.53
			h-5.03v-7.53H42.22v7.53h-7.53v-7.53H24.65v7.53h-5.02v143.04H0v49.32h853.91v-49.32H802.61z M742.38,257.723h10.04v7.53h-10.04
			V257.723z M742.38,297.873v-7.53h10.04v7.53H742.38z M752.42,300.383v5.01h-10.04v-5.01H752.42z M742.38,272.783v-5.02h10.04v5.02
			H742.38z M727.32,265.253h-10.03v-7.53h10.03V265.253z M717.29,267.763h10.03v5.02h-10.03V267.763z M717.29,297.873v-7.53h10.03
			v7.53H717.29z M727.32,300.383v5.01h-10.03v-5.01H727.32z M704.74,272.783H694.7v-5.02h10.04V272.783z M704.74,290.343v7.53H694.7
			v-7.53H704.74z M704.74,300.383v5.01H694.7v-5.01H704.74z M724.82,250.193h2.5v5.02h-2.5V250.193z M719.79,250.193h2.52v5.02
			h-2.52V250.193z M714.78,250.193h2.51v5.02h-2.51V250.193z M709.76,250.193h2.51v5.02h-2.51V250.193z M704.74,250.193h2.51v5.02
			h-2.51V250.193z M699.72,255.213v-5.02h2.51v5.02H699.72z M697.22,250.193v5.02h-2.52v-5.02H697.22z M692.19,255.213h-2.5v-5.02
			h2.5V255.213z M694.7,257.723h10.04v7.53H694.7V257.723z M285.64,325.483v-5.03h7.53v5.03H285.64z M295.69,325.483v-5.03h7.53
			v5.03H295.69z M491.43,317.953h5.02v15.06h-5.02V317.953z M491.43,285.323h5.02v15.06h-5.02V285.323z M511.51,230.123h10.03v5.01
			h-10.03V230.123z M569.23,205.023h-2.52v-5.02h2.52V205.023z M551.66,200.003h2.51v5.02h-2.51V200.003z M556.67,200.003h2.51v5.02
			h-2.51V200.003z M561.7,200.003h2.5v5.02h-2.5V200.003z M554.17,230.123h10.03v5.01h-10.03V230.123z M546.64,200.003h2.5v5.02
			h-2.5V200.003z M554.17,262.743h10.03v5.02h-10.03V262.743z M534.1,235.133v-5.01h10.03v5.01H534.1z M534.1,262.743h10.03v5.02
			H534.1V262.743z M534.1,260.233v-7.53h10.03v7.53H534.1z M544.13,227.603H534.1v-7.52h10.03V227.603z M511.51,220.083h10.03v7.52
			h-10.03V220.083z M511.51,252.703h10.03v7.53h-10.03V252.703z M564.2,327.983v5.03h-10.03v-5.03H564.2z M544.13,292.853H534.1
			v-7.53h10.03V292.853z M544.13,295.363v5.02H534.1v-5.02H544.13z M544.13,317.953v7.53H534.1v-7.53H544.13z M534.1,333.013v-5.03
			h10.03v5.03H534.1z M521.54,327.983v5.03h-10.03v-5.03H521.54z M521.54,325.483h-10.03v-7.53h10.03V325.483z M521.54,285.323v7.53
			h-10.03v-7.53H521.54z M511.51,267.763v-5.02h10.03v5.02H511.51z M521.54,295.363v5.02h-10.03v-5.02H521.54z M717.29,333.013
			h10.03v5.01h-10.03V333.013z M717.29,330.493v-7.52h10.03v7.52H717.29z M752.42,333.013v5.01h-10.04v-5.01H752.42z
			 M752.42,330.493h-10.04v-7.52h10.04V330.493z M704.74,330.493H694.7v-7.52h10.04V330.493z M704.74,333.013v5.01H694.7v-5.01
			H704.74z M564.2,325.483h-10.03v-7.53h10.03V325.483z M564.2,295.363v5.02h-10.03v-5.02H564.2z M554.17,292.853v-7.53h10.03v7.53
			H554.17z M564.2,260.233h-10.03v-7.53h10.03V260.233z M564.2,227.603h-10.03v-7.52h10.03V227.603z M574.24,205.023h-2.51v-5.02
			h2.51V205.023z M541.62,200.003h2.51v5.02h-2.51V200.003z M539.11,200.003v5.02h-2.51v-5.02H539.11z M491.43,220.083h5.02v15.05
			h-5.02V220.083z M491.43,252.703h5.02v15.06h-5.02V252.703z M481.39,220.083h5.02v15.05h-5.02V220.083z M481.39,252.703h5.02
			v15.06h-5.02V252.703z M481.39,285.323h5.02v15.06h-5.02V285.323z M481.39,317.953h5.02v15.06h-5.02V317.953z M340.86,280.313
			v10.03h-5.03v-10.03H340.86z M335.83,272.783v-10.04h5.03v10.04H335.83z M340.86,297.873v10.04h-5.03v-10.04H340.86z
			 M348.39,280.313v10.03h-5.03v-10.03H348.39z M343.36,272.783v-10.04h5.03v10.04H343.36z M348.39,297.873v10.04h-5.03v-10.04
			H348.39z M413.63,275.293h7.53v7.53h-7.53V275.293z M413.63,292.853h7.53v7.53h-7.53V292.853z M413.63,310.423h7.53v7.53h-7.53
			V310.423z M403.59,275.293h7.53v7.53h-7.53V275.293z M403.59,292.853h7.53v7.53h-7.53V292.853z M403.59,310.423h7.53v7.53h-7.53
			V310.423z M343.36,247.683h5.03v10.04h-5.03V247.683z M343.36,242.663v-10.04h5.03v10.04H343.36z M348.39,217.563v10.04h-5.03
			v-10.04H348.39z M335.83,217.563h5.03v10.04h-5.03V217.563z M335.83,232.623h5.03v10.04h-5.03V232.623z M335.83,247.683h5.03
			v10.04h-5.03V247.683z M325.8,275.293h2.5v5.02h-2.5V275.293z M320.78,275.293h2.51v5.02h-2.51V275.293z M315.76,275.293h2.51
			v5.02h-2.51V275.293z M310.74,275.293h2.51v5.02h-2.51V275.293z M305.72,275.293h2.51v5.02h-2.51V275.293z M300.7,275.293h2.52
			v5.02h-2.52V275.293z M295.69,275.293h2.5v5.02h-2.5V275.293z M290.66,275.293h2.51v5.02h-2.51V275.293z M303.22,310.423v5.02
			h-7.53v-5.02H303.22z M293.17,310.423v5.02h-7.53v-5.02H293.17z M59.78,265.253v25.09H44.72v-25.09H59.78z M77.35,295.363h10.04
			v10.03H77.35V295.363z M77.35,290.343v-10.03h10.04v10.03H77.35z M87.39,275.293H77.35v-10.04h10.04V275.293z M140.09,260.233
			v5.02h-17.57v-5.02H140.09z M140.09,275.293h-17.57v-5.03h17.57V275.293z M77.35,235.133h10.04v10.04H77.35V235.133z
			 M77.35,250.193h10.04v10.04H77.35V250.193z M44.72,235.133h15.06v25.1H44.72V235.133z M44.72,295.363h15.06v25.09H44.72V295.363z
			 M536.36,325.483c0.04,0.03,0.09,0.06,0.13,0.1c0.02,0.02,0.04,0.04,0.05,0.06c0.04,0.04,0.08,0.09,0.11,0.14
			c0.04,0.06,0.07,0.13,0.1,0.21c0.01,0.03,0.02,0.06,0.03,0.09c0.01,0.02,0.02,0.04,0.02,0.06c0.02,0.09,0.04,0.18,0.05,0.28
			c0.02,0.12,0.03,0.26,0.03,0.41v1.15h0.72v-0.33c0-0.15,0-0.3,0.01-0.43c0-0.14,0-0.27,0.01-0.38c0.01-0.25,0.03-0.46,0.07-0.64
			c0.02-0.08,0.03-0.16,0.06-0.23c0.02-0.07,0.04-0.13,0.08-0.19c0.03-0.06,0.07-0.12,0.11-0.17c0.04-0.05,0.09-0.09,0.14-0.13
			H536.36z M340.86,219.203v7.53h2.5v-7.53H340.86z M59.78,269.393v5.03h17.57v-5.03H59.78z M536.36,325.483
			c0.04,0.03,0.09,0.06,0.13,0.1c0.02,0.02,0.04,0.04,0.05,0.06c0.04,0.04,0.08,0.09,0.11,0.14c0.04,0.06,0.07,0.13,0.1,0.21
			c0.01,0.03,0.02,0.06,0.03,0.09c0.01,0.02,0.02,0.04,0.02,0.06c0.02,0.09,0.04,0.18,0.05,0.28c0.02,0.12,0.03,0.26,0.03,0.41v1.15
			h0.72v-0.33c0-0.15,0-0.3,0.01-0.43c0-0.14,0-0.27,0.01-0.38c0.01-0.25,0.03-0.46,0.07-0.64c0.02-0.08,0.03-0.16,0.06-0.23
			c0.02-0.07,0.04-0.13,0.08-0.19c0.03-0.06,0.07-0.12,0.11-0.17c0.04-0.05,0.09-0.09,0.14-0.13H536.36z M340.86,219.203v7.53h2.5
			v-7.53H340.86z M59.78,269.393v5.03h17.57v-5.03H59.78z M536.36,325.483c0.04,0.03,0.09,0.06,0.13,0.1
			c0.02,0.02,0.04,0.04,0.05,0.06c0.04,0.04,0.08,0.09,0.11,0.14c0.04,0.06,0.07,0.13,0.1,0.21c0.01,0.03,0.02,0.06,0.03,0.09
			c0.01,0.02,0.02,0.04,0.02,0.06c0.02,0.09,0.04,0.18,0.05,0.28c0.02,0.12,0.03,0.26,0.03,0.41v1.15h0.72v-0.33
			c0-0.15,0-0.3,0.01-0.43c0-0.14,0-0.27,0.01-0.38c0.01-0.25,0.03-0.46,0.07-0.64c0.02-0.08,0.03-0.16,0.06-0.23
			c0.02-0.07,0.04-0.13,0.08-0.19c0.03-0.06,0.07-0.12,0.11-0.17c0.04-0.05,0.09-0.09,0.14-0.13H536.36z M340.86,219.203v7.53h2.5
			v-7.53H340.86z M59.78,269.393v5.03h17.57v-5.03H59.78z M536.36,325.483c0.04,0.03,0.09,0.06,0.13,0.1
			c0.02,0.02,0.04,0.04,0.05,0.06c0.04,0.04,0.08,0.09,0.11,0.14c0.04,0.06,0.07,0.13,0.1,0.21c0.01,0.03,0.02,0.06,0.03,0.09
			c0.01,0.02,0.02,0.04,0.02,0.06c0.02,0.09,0.04,0.18,0.05,0.28c0.02,0.12,0.03,0.26,0.03,0.41v1.15h0.72v-0.33
			c0-0.15,0-0.3,0.01-0.43c0-0.14,0-0.27,0.01-0.38c0.01-0.25,0.03-0.46,0.07-0.64c0.02-0.08,0.03-0.16,0.06-0.23
			c0.02-0.07,0.04-0.13,0.08-0.19c0.03-0.06,0.07-0.12,0.11-0.17c0.04-0.05,0.09-0.09,0.14-0.13H536.36z M340.86,219.203v7.53h2.5
			v-7.53H340.86z M59.78,269.393v5.03h17.57v-5.03H59.78z M340.86,219.203v7.53h2.5v-7.53H340.86z M59.78,269.393v5.03h17.57v-5.03
			H59.78z M340.86,219.203v7.53h2.5v-7.53H340.86z M59.78,269.393v5.03h17.57v-5.03H59.78z M340.86,219.203v7.53h2.5v-7.53H340.86z
			 M59.78,269.393v5.03h17.57v-5.03H59.78z M340.86,219.203v7.53h2.5v-7.53H340.86z M59.78,269.393v5.03h17.57v-5.03H59.78z
			 M340.86,219.203v7.53h2.5v-7.53H340.86z M59.78,269.393v5.03h17.57v-5.03H59.78z M340.86,219.203v7.53h2.5v-7.53H340.86z
			 M59.78,269.393v5.03h17.57v-5.03H59.78z M536.36,325.483c0.04,0.03,0.09,0.06,0.13,0.1c0.02,0.02,0.04,0.04,0.05,0.06
			c0.04,0.04,0.08,0.09,0.11,0.14c0.04,0.06,0.07,0.13,0.1,0.21c0.01,0.03,0.02,0.06,0.03,0.09c0.01,0.02,0.02,0.04,0.02,0.06
			c0.02,0.09,0.04,0.18,0.05,0.28c0.02,0.12,0.03,0.26,0.03,0.41v1.15h0.72v-0.33c0-0.15,0-0.3,0.01-0.43c0-0.14,0-0.27,0.01-0.38
			c0.01-0.25,0.03-0.46,0.07-0.64c0.02-0.08,0.03-0.16,0.06-0.23c0.02-0.07,0.04-0.13,0.08-0.19c0.03-0.06,0.07-0.12,0.11-0.17
			c0.04-0.05,0.09-0.09,0.14-0.13H536.36z M340.86,219.203v7.53h2.5v-7.53H340.86z M59.78,269.393v5.03h17.57v-5.03H59.78z
			 M340.86,219.203v7.53h2.5v-7.53H340.86z M59.78,269.393v5.03h17.57v-5.03H59.78z M340.86,219.203v7.53h2.5v-7.53H340.86z
			 M59.78,269.393v5.03h17.57v-5.03H59.78z M340.86,219.203v7.53h2.5v-7.53H340.86z M59.78,269.393v5.03h17.57v-5.03H59.78z
			 M340.86,219.203v7.53h2.5v-7.53H340.86z M59.78,269.393v5.03h17.57v-5.03H59.78z M340.86,219.203v7.53h2.5v-7.53H340.86z
			 M59.78,269.393v5.03h17.57v-5.03H59.78z M340.86,219.203v7.53h2.5v-7.53H340.86z M59.78,269.393v5.03h17.57v-5.03H59.78z"/>
		<rect x="0" y="333.013" fill="#122125" width="64.81" height="2.5"/>
		<rect x="0" y="335.513" fill="#122125" width="2.07" height="12.55"/>
		<rect x="24.651" y="335.517" fill="#122125" width="2.51" height="12.548"/>
		<rect x="49.747" y="335.517" fill="#122125" width="2.51" height="12.548"/>
		<rect x="0" y="340.543" fill="#122125" width="64.81" height="2.5"/>
		<rect x="148.774" y="343.046" fill="#122125" width="129.342" height="2.51"/>
		<rect x="202.83" y="343.046" fill="#122125" width="2.51" height="12.548"/>
		<rect x="210.358" y="343.046" fill="#122125" width="2.51" height="12.548"/>
		<rect x="217.887" y="343.046" fill="#122125" width="2.51" height="12.548"/>
		<rect x="225.416" y="343.046" fill="#122125" width="2.51" height="12.548"/>
		<rect x="232.944" y="343.046" fill="#122125" width="2.51" height="12.548"/>
		<rect x="240.473" y="343.046" fill="#122125" width="2.51" height="12.548"/>
		<rect x="248.002" y="343.046" fill="#122125" width="2.51" height="12.548"/>
		<rect x="263.059" y="343.046" fill="#122125" width="2.51" height="12.548"/>
		<rect x="270.588" y="343.046" fill="#122125" width="2.51" height="12.548"/>
		<rect x="338.345" y="202.511" fill="#122125" width="2.51" height="10.038"/>
		<rect x="386.027" y="202.511" fill="#122125" width="2.51" height="10.038"/>
		<rect x="330.817" y="202.511" fill="#122125" width="65.248" height="2.51"/>
		<rect x="576.753" y="333.007" fill="#122125" width="110.42" height="2.51"/>
		<rect x="576.753" y="340.536" fill="#122125" width="110.42" height="5.019"/>
		<rect x="586.791" y="333.007" fill="#122125" width="2.51" height="15.057"/>
		<rect x="601.849" y="333.007" fill="#122125" width="2.51" height="15.057"/>
		<rect x="629.454" y="333.007" fill="#122125" width="2.51" height="15.057"/>
		<rect x="642.001" y="333.007" fill="#122125" width="2.51" height="15.057"/>
		<rect x="669.607" y="333.007" fill="#122125" width="2.51" height="15.057"/>
		<rect x="802.61" y="338.023" fill="#122125" width="51.3" height="2.52"/>
		<rect x="807.632" y="340.536" fill="#122125" width="5.019" height="7.529"/>
		<rect x="825.199" y="340.536" fill="#122125" width="5.019" height="7.529"/>
		<rect x="842.766" y="340.536" fill="#122125" width="5.019" height="7.529"/>
		<rect x="0" y="378.183" fill="#122125" width="853.91" height="19.2"/>
		<rect x="173.142" y="343.924" fill="#122125" width="2.51" height="12.548"/>
		<rect x="180.67" y="343.924" fill="#122125" width="2.51" height="12.548"/>
		<rect x="188.199" y="343.924" fill="#122125" width="2.51" height="12.548"/>
		<rect x="195.728" y="343.924" fill="#122125" width="2.51" height="12.548"/>
		<rect x="164.433" y="343.347" fill="#122125" width="2.51" height="12.548"/>
		<rect x="149.828" y="344.225" fill="#122125" width="2.51" height="12.548"/>
		<rect x="157.356" y="344.225" fill="#122125" width="2.51" height="12.548"/>
	</g>
</g>
<image display="none" overflow="visible" width="1821" height="774" xlink:href="AC8D7C60.jpg"  transform="matrix(1 0 0 1 -1774.59 1177.3428)">
</image>
<g display="none">
	<path display="inline" fill="#122125" d="M-680.716,671.843h-75.747c-38.454,0-69.626-31.173-69.626-69.626v-75.747
		c0-38.454,31.173-69.626,69.626-69.626h75.747c38.454,0,69.626,31.173,69.626,69.626v75.747
		C-611.09,640.67-642.263,671.843-680.716,671.843z"/>
	<path display="inline" fill="#2B3949" d="M-680.716,389.843h-75.747c-38.454,0-69.626-31.173-69.626-69.626v-75.747
		c0-38.454,31.173-69.626,69.626-69.626h75.747c38.454,0,69.626,31.173,69.626,69.626v75.747
		C-611.09,358.67-642.263,389.843-680.716,389.843z"/>
	<path display="inline" fill="#544C5F" d="M-694.216,90.343h-75.747c-38.454,0-69.626-31.173-69.626-69.626v-75.747
		c0-38.454,31.173-69.626,69.626-69.626h75.747c38.454,0,69.626,31.173,69.626,69.626v75.747
		C-624.59,59.17-655.763,90.343-694.216,90.343z"/>
	<path display="inline" fill="#E09397" d="M-398.216,90.343h-75.747c-38.454,0-69.626-31.173-69.626-69.626v-75.747
		c0-38.454,31.173-69.626,69.626-69.626h75.747c38.454,0,69.626,31.173,69.626,69.626v75.747
		C-328.59,59.17-359.763,90.343-398.216,90.343z"/>
	<path display="inline" fill="#8F586A" d="M-397.216,672.343h-75.747c-38.454,0-69.626-31.173-69.626-69.626v-75.747
		c0-38.454,31.173-69.626,69.626-69.626h75.747c38.454,0,69.626,31.173,69.626,69.626v75.747
		C-327.59,641.17-358.763,672.343-397.216,672.343z"/>
	<path display="inline" fill="#C47688" d="M-397.216,390.343h-75.747c-38.454,0-69.626-31.173-69.626-69.626v-75.747
		c0-38.454,31.173-69.626,69.626-69.626h75.747c38.454,0,69.626,31.173,69.626,69.626v75.747
		C-327.59,359.17-358.763,390.343-397.216,390.343z"/>
</g>
<path display="none" fill="#E09397" d="M854.41,82.283v352.32H10.02v-0.26H0.41v-327.31c33.44,0.09,57.93,6.17,75.42,12.77
	c2.3,0.88,4.45,1.75,6.54,2.6c3.97-2.5,8.53-5.29,13.84-8.42c17.36-10.24,26.03-15.34,32.47-17.71c27.18-9.97,50.74-3.21,79.69,2.96
	c18.24,3.89,63.07,13.43,100.35,14.75c62.16,2.22,64.94-19.83,123.97-17.71c13.2,0.47,34.47,5.31,71.94,14.82
	c26.2-0.44,48.41,1.65,66.18,3.24c65.35,6.14,67.42,18.89,109.7,21.44c16.53-4.89,37.2-12.1,65.04-21.79
	c36.45-12.72,40.02-15.55,56.08-20.66C815.89,88.783,833.4,84.563,854.41,82.283z"/>
</svg>
