<svg id="Capa_3" data-name="Capa 3" xmlns="http://www.w3.org/2000/svg" viewBox="0 0 385.83 48.54"><title>metro</title><rect x="4.5" y="40.04" width="341" height="5" style="fill:#c1272d"/><circle cx="6" cy="42.54" r="4.5" style="fill:#febd00;stroke:#febd00;stroke-miterlimit:10;stroke-width:3px"/><circle cx="346" cy="42.54" r="4.5" style="fill:#c1272d;stroke:#c1272d;stroke-miterlimit:10;stroke-width:3px"/><circle cx="40" cy="42.54" r="4.5" style="fill:#c1272d;stroke:#c1272d;stroke-miterlimit:10;stroke-width:3px"/><circle cx="74" cy="42.54" r="4.5" style="fill:#c1272d;stroke:#c1272d;stroke-miterlimit:10;stroke-width:3px"/><circle cx="111" cy="42.54" r="4.5" style="fill:#c1272d;stroke:#c1272d;stroke-miterlimit:10;stroke-width:3px"/><circle cx="147" cy="42.54" r="4.5" style="fill:#c1272d;stroke:#c1272d;stroke-miterlimit:10;stroke-width:3px"/><circle cx="185" cy="42.54" r="4.5" style="fill:#c1272d;stroke:#c1272d;stroke-miterlimit:10;stroke-width:3px"/><circle cx="227" cy="42.54" r="4.5" style="fill:#c1272d;stroke:#c1272d;stroke-miterlimit:10;stroke-width:3px"/><circle cx="267" cy="42.54" r="4.5" style="fill:#c1272d;stroke:#c1272d;stroke-miterlimit:10;stroke-width:3px"/><circle cx="307" cy="42.54" r="4.5" style="fill:#c1272d;stroke:#c1272d;stroke-miterlimit:10;stroke-width:3px"/><g style="isolation:isolate"><path d="M15.75,112.24a1.47,1.47,0,0,1,.21,1.05,1.25,1.25,0,0,1-.64.82l-.8.46,1,1.73-.9.52-3.31-5.72,1.53-.9a1.51,1.51,0,0,1,1.14-.15,1.46,1.46,0,0,1,.91.7Zm-1,.27-.61-1.06a1.17,1.17,0,0,0-.43-.5c-.16-.07-.38,0-.67.15l-.39.23,1.45,2.51.54-.3a.54.54,0,0,0,.32-.47A1.31,1.31,0,0,0,14.75,112.51Z" transform="translate(0 -79.96)" style="fill:#e9ece9"/><path d="M20.87,112.6l-.27,1-.56-.14a1.91,1.91,0,0,1-.85.81,1.42,1.42,0,0,1-1.14.15,1.44,1.44,0,0,1-.91-.69l-1.85-3.22a1.43,1.43,0,0,1-.15-1.14,1.46,1.46,0,0,1,.7-.91l.22-.13a1.47,1.47,0,0,1,1.14-.15,1.43,1.43,0,0,1,.91.7L20,112.11a1.23,1.23,0,0,1,.14.31Zm-2.08-.54-1.46-2.52c-.25-.44-.54-.58-.86-.39s-.48.59-.2,1.08L17.88,113c.27.49.6.62,1,.4a.75.75,0,0,0,.23-.19l-.92-.23.28-1Z" transform="translate(0 -79.96)" style="fill:#e9ece9"/><path d="M23.65,110.54l.46.8-2.62,1.52-3.25-5.63,2.62-1.52.47.81-1.73,1,.88,1.52,1.72-1,.47.81-1.73,1,1,1.7Z" transform="translate(0 -79.96)" style="fill:#e9ece9"/><path d="M25.55,110.51l-.9.52-.56-1,.91-.51Z" transform="translate(0 -79.96)" style="fill:#e9ece9"/><path d="M29.94,106.36a1.48,1.48,0,0,1,.2,1,1.19,1.19,0,0,1-.64.81l-1.69,1-3.26-5.65,1.53-.89a1.4,1.4,0,0,1,1.13-.15,1.44,1.44,0,0,1,.92.7l.41.71a1.24,1.24,0,0,1,.15.58,1,1,0,0,1-.12.58.89.89,0,0,1,.54.15,1.16,1.16,0,0,1,.42.4Zm-2.4-2.16-.16-.28c-.17-.29-.31-.46-.44-.51a.83.83,0,0,0-.67.16l-.42.24,1,1.76.44-.24c.27-.16.42-.32.44-.5A1.08,1.08,0,0,0,27.54,104.2Zm1.4,2.42-.2-.33c-.24-.43-.47-.59-.67-.47l-.8.46,1,1.7.58-.32a.54.54,0,0,0,.32-.47A1.49,1.49,0,0,0,28.94,106.62Z" transform="translate(0 -79.96)" style="fill:#e9ece9"/><path d="M32.09,106.73l-.9.52-3.25-5.63.91-.51Z" transform="translate(0 -79.96)" style="fill:#e9ece9"/><path d="M34.74,103.57a1.5,1.5,0,0,1-.55,2.05l-.22.13a1.43,1.43,0,0,1-1.14.15,1.48,1.48,0,0,1-.91-.69L30.06,102a1.5,1.5,0,0,1,.55-2l.23-.13A1.48,1.48,0,0,1,32,99.66a1.45,1.45,0,0,1,.92.7l.51.89-.85.49s-.08-.13-.14-.25a2.7,2.7,0,0,0-.16-.26c-.34-.6-.71-.79-1.09-.56s-.39.54-.11,1l1.6,2.77c.28.49.61.62,1,.4s.4-.56.12-1l-.44-.75.85-.49Z" transform="translate(0 -79.96)" style="fill:#e9ece9"/><path d="M38,102.27l.46.8-2.62,1.52L32.56,99l2.62-1.52.47.81-1.73,1,.88,1.52,1.72-1,.47.81-1.73,1,1,1.7Z" transform="translate(0 -79.96)" style="fill:#e9ece9"/><path d="M41.55,101.27l-.92.53L38,99.26l1.77,3.07-.83.48L35.62,97.2l.92-.53,2.75,2.6-1.82-3.14.84-.48Z" transform="translate(0 -79.96)" style="fill:#e9ece9"/><path d="M41.87,94.54,41,95,43.83,100l-.9.52-2.84-4.91-.86.5-.43-.72,2.64-1.52Z" transform="translate(0 -79.96)" style="fill:#e9ece9"/><path d="M47.2,96.94l.47.8L45,99.26,41.8,93.63l2.62-1.52.46.81-1.72,1L44,95.43l1.72-1,.47.81-1.72,1,1,1.7Z" transform="translate(0 -79.96)" style="fill:#e9ece9"/><path d="M50.78,95.94l-.92.53-2.68-2.54L49,97l-.83.48-3.27-5.61.92-.53,2.75,2.6L46.71,90.8l.83-.48Z" transform="translate(0 -79.96)" style="fill:#e9ece9"/><path d="M54.17,94l-.9.51-1-1.16-.66.38.52,1.41-.9.52L49,89.45l.93-.53Zm-2.51-1.47-1-1.26.61,1.47Z" transform="translate(0 -79.96)" style="fill:#e9ece9"/><path d="M57.49,92.07l-.86.5-.8-1.38a.71.71,0,0,0-.72-.45,2.91,2.91,0,0,0-.82.37l1.21,2.11-.9.52-3.26-5.65,1.53-.89a1.5,1.5,0,0,1,2.05.55l.56,1a1.38,1.38,0,0,1,.16.65,1,1,0,0,1-.16.61,1.35,1.35,0,0,1,.62.1,1,1,0,0,1,.48.41Zm-3-3.08-.31-.54c-.17-.29-.32-.46-.47-.51s-.36,0-.64.16l-.38.22,1.15,2,.55-.3C54.73,89.82,54.76,89.47,54.48,89Z" transform="translate(0 -79.96)" style="fill:#e9ece9"/><path d="M59,91.21l-.9.52L54.83,86.1l.91-.52Z" transform="translate(0 -79.96)" style="fill:#e9ece9"/><path d="M61.68,88a1.43,1.43,0,0,1,.15,1.14,1.46,1.46,0,0,1-.7.91l-.22.13a1.5,1.5,0,0,1-2-.55L57,86.43a1.48,1.48,0,0,1-.15-1.13,1.43,1.43,0,0,1,.7-.91l.23-.13a1.42,1.42,0,0,1,1.14-.15,1.44,1.44,0,0,1,.91.69Zm-1,.27-1.6-2.78a1.7,1.7,0,0,0-.35-.45.5.5,0,0,0-.55,0c-.41.24-.47.6-.19,1.08l1.6,2.78c.28.48.61.62,1,.4S61,88.77,60.68,88.29Z" transform="translate(0 -79.96)" style="fill:#e9ece9"/></g><g style="isolation:isolate"><path d="M54.48,114.17l-.89.51-1-1.16-.66.38.52,1.41-.9.52-2.25-6.2.93-.53ZM52,112.7l-1-1.26.6,1.47Z" transform="translate(0 -79.96)" style="fill:#e9ece9"/><path d="M57.65,112.34l-.92.53-2.68-2.54,1.77,3.06-.83.49-3.27-5.61.92-.53,2.74,2.6-1.81-3.14.83-.48Z" transform="translate(0 -79.96)" style="fill:#e9ece9"/><path d="M59.62,108l.67,1.18a1.4,1.4,0,0,1,.15,1.13,1.43,1.43,0,0,1-.7.91l-.22.13a1.43,1.43,0,0,1-1.14.15,1.44,1.44,0,0,1-.91-.69l-1.86-3.22a1.51,1.51,0,0,1-.15-1.14,1.46,1.46,0,0,1,.7-.91l.23-.13a1.5,1.5,0,0,1,2,.55l.51.89-.86.5-.11-.18a1.8,1.8,0,0,1-.1-.18,3.24,3.24,0,0,0-.46-.64.58.58,0,0,0-.72-.08c-.35.2-.38.54-.1,1l1.6,2.77c.28.49.61.62,1,.4a.52.52,0,0,0,.32-.53,2.11,2.11,0,0,0-.27-.61l-.6.34-.48-.82Z" transform="translate(0 -79.96)" style="fill:#e9ece9"/><path d="M63.56,107.3a1.51,1.51,0,0,1,.15,1.14,1.46,1.46,0,0,1-.7.91l-.23.13a1.49,1.49,0,0,1-1.13.15,1.45,1.45,0,0,1-.92-.7l-1.85-3.22a1.4,1.4,0,0,1-.15-1.13,1.43,1.43,0,0,1,.7-.91l.22-.13a1.43,1.43,0,0,1,1.14-.15,1.44,1.44,0,0,1,.91.69Zm-1,.27L61,104.79a1.37,1.37,0,0,0-.35-.45.48.48,0,0,0-.54,0c-.41.24-.48.6-.2,1.08l1.61,2.78c.28.48.6.61,1,.4S62.84,108.05,62.56,107.57Z" transform="translate(0 -79.96)" style="fill:#e9ece9"/><path d="M66.79,106l.47.81-2.63,1.51-3.24-5.62.9-.52L65.07,107Z" transform="translate(0 -79.96)" style="fill:#e9ece9"/></g><g style="isolation:isolate"><path d="M82.55,112.24a1.47,1.47,0,0,1,.21,1.05,1.25,1.25,0,0,1-.64.82l-.8.46,1,1.73-.9.52-3.31-5.72,1.53-.9a1.51,1.51,0,0,1,1.14-.15,1.46,1.46,0,0,1,.91.7Zm-1,.27-.61-1.06a1.17,1.17,0,0,0-.43-.5c-.16-.07-.38,0-.67.15l-.39.23,1.45,2.51.54-.3a.54.54,0,0,0,.32-.47A1.31,1.31,0,0,0,81.55,112.51Z" transform="translate(0 -79.96)" style="fill:#e9ece9"/><path d="M86.77,112.65l.47.81L84.61,115l-3.24-5.62.9-.52,2.78,4.82Z" transform="translate(0 -79.96)" style="fill:#e9ece9"/><path d="M90.33,111.67l-.9.52-1-1.16-.66.38.52,1.41-.89.52-2.26-6.2.93-.53Zm-2.51-1.46-1-1.26.61,1.47Z" transform="translate(0 -79.96)" style="fill:#e9ece9"/><path d="M93.37,109.92l-2.64,1.53-.43-.74-.65-5.19-1.76,1-.41-.72,2.64-1.53.41.72.67,5.21,1.75-1Z" transform="translate(0 -79.96)" style="fill:#e9ece9"/><path d="M96.63,108l-.89.51-.95-1.16-.66.38.52,1.41-.9.52-2.25-6.2.93-.53Zm-2.5-1.47-1-1.26.61,1.47Z" transform="translate(0 -79.96)" style="fill:#e9ece9"/><path d="M99.72,106.25l-.9.53-3.25-5.63.9-.52Z" transform="translate(0 -79.96)" style="fill:#e9ece9"/><path d="M103,104.37l-.92.53-2.68-2.55,1.77,3.07-.83.48-3.27-5.61.92-.53,2.75,2.61-1.82-3.15.84-.48Z" transform="translate(0 -79.96)" style="fill:#e9ece9"/><path d="M105.67,101.2a1.41,1.41,0,0,1,.21,1,1.22,1.22,0,0,1-.64.82l-1.7,1-3.26-5.64,1.53-.9a1.47,1.47,0,0,1,1.14-.14,1.4,1.4,0,0,1,.91.7Zm-1,.26-1.56-2.71a1.24,1.24,0,0,0-.43-.5.85.85,0,0,0-.67.15l-.43.25,2.41,4.17.57-.32a.53.53,0,0,0,.32-.47A1.25,1.25,0,0,0,104.67,101.46Z" transform="translate(0 -79.96)" style="fill:#e9ece9"/><path d="M109,99.84l.46.8-2.62,1.52-3.25-5.62L106.18,95l.47.8-1.73,1,.88,1.51,1.72-1,.47.8-1.72,1,1,1.69Z" transform="translate(0 -79.96)" style="fill:#e9ece9"/><path d="M110.94,95.85a1.47,1.47,0,0,1,.21,1.05,1.24,1.24,0,0,1-.65.82l-.79.46,1,1.73-.9.52-3.31-5.72,1.53-.9a1.51,1.51,0,0,1,1.14-.15,1.46,1.46,0,0,1,.91.7Zm-1,.27-.61-1.06a1.25,1.25,0,0,0-.43-.5.85.85,0,0,0-.67.15l-.39.23,1.45,2.51.54-.3a.51.51,0,0,0,.31-.47A1.26,1.26,0,0,0,109.94,96.12Z" transform="translate(0 -79.96)" style="fill:#e9ece9"/><path d="M115.21,96.24l.47.8-2.63,1.52-3.24-5.63,2.62-1.52.46.81-1.72,1,.87,1.52,1.73-1,.46.81-1.72,1,1,1.7Z" transform="translate(0 -79.96)" style="fill:#e9ece9"/><path d="M118.79,95.24l-.91.53-2.68-2.54L117,96.29l-.83.49-3.27-5.61.92-.53,2.74,2.6-1.81-3.14.83-.48Z" transform="translate(0 -79.96)" style="fill:#e9ece9"/><path d="M121.48,92.07a1.48,1.48,0,0,1,.21,1.05,1.25,1.25,0,0,1-.64.82l-1.7,1-3.26-5.65,1.53-.89a1.51,1.51,0,0,1,2,.55Zm-1,.27-1.56-2.71a1.25,1.25,0,0,0-.43-.5.81.81,0,0,0-.67.15l-.43.25,2.4,4.16.58-.32a.54.54,0,0,0,.32-.47A1.22,1.22,0,0,0,120.48,92.34Z" transform="translate(0 -79.96)" style="fill:#e9ece9"/><path d="M124.77,90.71l.47.81L122.61,93l-3.24-5.62L122,85.89l.46.81-1.72,1,.87,1.52,1.73-1,.46.81-1.72,1,1,1.7Z" transform="translate(0 -79.96)" style="fill:#e9ece9"/><path d="M128.36,89.72l-.92.53-2.68-2.54,1.77,3.07-.83.48-3.27-5.61.92-.53,2.74,2.6-1.81-3.14.83-.48Z" transform="translate(0 -79.96)" style="fill:#e9ece9"/><path d="M131,86.57a1.5,1.5,0,0,1-.55,2.05l-.22.13a1.5,1.5,0,0,1-2.05-.55L126.31,85a1.44,1.44,0,0,1-.14-1.13,1.42,1.42,0,0,1,.69-.91l.23-.13a1.43,1.43,0,0,1,1.14-.15,1.46,1.46,0,0,1,.91.7l.51.89-.85.49a1.84,1.84,0,0,0-.14-.25l-.15-.27c-.35-.59-.71-.78-1.1-.56s-.39.55-.11,1l1.6,2.78q.42.72,1,.39c.36-.2.4-.55.12-1l-.44-.76.85-.49Z" transform="translate(0 -79.96)" style="fill:#e9ece9"/><path d="M133.09,87l-.9.52-3.25-5.63.91-.51Z" transform="translate(0 -79.96)" style="fill:#e9ece9"/><path d="M136.49,85l-.9.51-1-1.16-.66.38.52,1.41-.9.52-2.25-6.2.93-.53ZM134,83.56l-1-1.26.61,1.47Z" transform="translate(0 -79.96)" style="fill:#e9ece9"/></g><g style="isolation:isolate"><path d="M118.21,110.39l-.87.5,2.84,4.91-.9.53-2.84-4.91-.87.5-.42-.72,2.64-1.52Z" transform="translate(0 -79.96)" style="fill:#e9ece9"/><path d="M124.32,113.41l-.86.5-.8-1.38a.73.73,0,0,0-.72-.45,3,3,0,0,0-.82.38l1.21,2.1-.9.52-3.26-5.65,1.53-.89a1.43,1.43,0,0,1,1.14-.15,1.46,1.46,0,0,1,.91.7l.56,1a1.42,1.42,0,0,1,.16.65.94.94,0,0,1-.16.61,1.24,1.24,0,0,1,.62.11,1,1,0,0,1,.48.4Zm-3-3.08-.31-.54a1.12,1.12,0,0,0-.47-.51.85.85,0,0,0-.64.16l-.38.23,1.15,2,.55-.31C121.56,111.16,121.59,110.82,121.31,110.33Z" transform="translate(0 -79.96)" style="fill:#e9ece9"/><path d="M125.81,112.55l-.9.52-3.25-5.63.91-.51Z" transform="translate(0 -79.96)" style="fill:#e9ece9"/><path d="M128.51,109.38a1.48,1.48,0,0,1,.2,1.05,1.22,1.22,0,0,1-.64.82l-1.69,1-3.26-5.64,1.52-.9a1.47,1.47,0,0,1,1.14-.14,1.4,1.4,0,0,1,.91.7l.42.71a1.24,1.24,0,0,1,.15.58,1,1,0,0,1-.12.58.83.83,0,0,1,.54.15,1.16,1.16,0,0,1,.42.4Zm-2.4-2.17-.17-.27c-.16-.29-.3-.46-.43-.51a.83.83,0,0,0-.67.16l-.42.24,1,1.76.44-.24c.27-.16.42-.32.44-.5A1.13,1.13,0,0,0,126.11,107.21Zm1.4,2.43-.2-.33c-.24-.43-.47-.59-.67-.47l-.8.46,1,1.7.57-.32a.52.52,0,0,0,.32-.47A1.29,1.29,0,0,0,127.51,109.64Z" transform="translate(0 -79.96)" style="fill:#e9ece9"/><path d="M131.84,107.45a1.48,1.48,0,0,1,.15,1.13,1.43,1.43,0,0,1-.7.91l-.23.13a1.5,1.5,0,0,1-2-.54l-2.58-4.47.86-.5,2.45,4.23c.28.49.6.62,1,.4s.39-.54.11-1l-2.44-4.23.86-.5Z" transform="translate(0 -79.96)" style="fill:#e9ece9"/><path d="M135.8,106.79l-.92.52-2.68-2.54,1.77,3.07-.83.48-3.27-5.61.92-.53,2.75,2.61-1.82-3.15.83-.48Z" transform="translate(0 -79.96)" style="fill:#e9ece9"/><path d="M139.19,104.83l-.9.52-.95-1.16-.66.38.52,1.41-.9.52-2.25-6.21.93-.53Zm-2.51-1.46-1-1.27.6,1.48Z" transform="translate(0 -79.96)" style="fill:#e9ece9"/><path d="M141.68,102.31l.47.81-2.63,1.51L136.28,99l.9-.52,2.78,4.82Z" transform="translate(0 -79.96)" style="fill:#e9ece9"/><path d="M144.51,100.68l.46.81L142.35,103l-3.25-5.62,2.62-1.52.47.81-1.73,1,.88,1.52,1.72-1,.47.81-1.73,1,1,1.7Z" transform="translate(0 -79.96)" style="fill:#e9ece9"/><path d="M145.84,95.57l-.87.5a2,2,0,0,0-.42-.55.55.55,0,0,0-.66,0c-.35.2-.38.55-.1,1a3.12,3.12,0,0,0,.47.65.58.58,0,0,0,.72.09,1.63,1.63,0,0,1,1.19-.18,1.38,1.38,0,0,1,1,.67l.4.7a1.5,1.5,0,0,1-.55,2.05l-.23.13a1.43,1.43,0,0,1-1.14.15,1.41,1.41,0,0,1-.91-.69l-.21-.38.86-.5q.51.9,1.08.57a.52.52,0,0,0,.31-.5,1.58,1.58,0,0,0-.23-.58c-.37-.64-.73-.85-1.1-.63a1.72,1.72,0,0,1-1.2.19,1.35,1.35,0,0,1-.95-.67l-.46-.8a1.4,1.4,0,0,1-.15-1.13,1.43,1.43,0,0,1,.7-.91l.23-.14a1.51,1.51,0,0,1,1.14-.15,1.43,1.43,0,0,1,.91.7Z" transform="translate(0 -79.96)" style="fill:#e9ece9"/></g><g style="isolation:isolate"><path d="M157.6,112.94a1.48,1.48,0,0,1,.15,1.13,1.43,1.43,0,0,1-.7.91l-.23.13a1.42,1.42,0,0,1-1.14.15,1.44,1.44,0,0,1-.91-.69l-2.57-4.47.86-.5,2.45,4.23c.28.49.6.62,1,.4s.39-.54.11-1L154.16,109l.86-.5Z" transform="translate(0 -79.96)" style="fill:#e9ece9"/><path d="M159.88,113.25l-.9.51-.56-1,.91-.51Z" transform="translate(0 -79.96)" style="fill:#e9ece9"/><path d="M164.27,109.09a1.48,1.48,0,0,1,.21,1,1.25,1.25,0,0,1-.64.82l-1.7,1-3.26-5.65,1.53-.89a1.4,1.4,0,0,1,1.13-.15,1.45,1.45,0,0,1,.92.7Zm-1,.27-1.56-2.71a1.18,1.18,0,0,0-.44-.5.76.76,0,0,0-.66.15l-.43.25,2.4,4.16.58-.32a.54.54,0,0,0,.32-.47A1.46,1.46,0,0,0,163.27,109.36Z" transform="translate(0 -79.96)" style="fill:#e9ece9"/><path d="M167.56,107.73l.47.81-2.63,1.51-3.24-5.62,2.62-1.52.46.81-1.72,1,.87,1.52,1.73-1,.46.81-1.72,1,1,1.7Z" transform="translate(0 -79.96)" style="fill:#e9ece9"/><path d="M172.18,104.51a1.5,1.5,0,0,1-.55,2l-.22.13a1.51,1.51,0,0,1-2-.54l-1.86-3.22a1.43,1.43,0,0,1-.15-1.14,1.46,1.46,0,0,1,.7-.91l.23-.13a1.49,1.49,0,0,1,2,.55l.52.89-.85.49-.15-.25a1.65,1.65,0,0,0-.15-.26c-.34-.6-.71-.79-1.09-.56s-.39.54-.11,1l1.6,2.77c.28.49.61.62,1,.4s.4-.56.12-1l-.44-.75.85-.49Z" transform="translate(0 -79.96)" style="fill:#e9ece9"/><path d="M175.45,102.63a1.47,1.47,0,0,1,.14,1.14,1.44,1.44,0,0,1-.69.91l-.23.13a1.51,1.51,0,0,1-1.14.15,1.46,1.46,0,0,1-.91-.7L170.77,101a1.49,1.49,0,0,1,.55-2l.22-.13a1.43,1.43,0,0,1,1.14-.15,1.44,1.44,0,0,1,.91.69Zm-1,.27-1.61-2.78a1.7,1.7,0,0,0-.35-.45.48.48,0,0,0-.54,0c-.41.24-.48.6-.2,1.08l1.6,2.78c.28.48.61.61,1,.4S174.72,103.38,174.45,102.9Z" transform="translate(0 -79.96)" style="fill:#e9ece9"/><path d="M179.35,102l-.92.53L175.75,100l1.77,3.07-.83.48-3.27-5.61.92-.53,2.74,2.61-1.81-3.14.83-.49Z" transform="translate(0 -79.96)" style="fill:#e9ece9"/><path d="M182,98.85a1.5,1.5,0,0,1-.55,2.05l-.22.13a1.43,1.43,0,0,1-1.14.15,1.44,1.44,0,0,1-.91-.69l-1.86-3.22a1.47,1.47,0,0,1-.14-1.14,1.44,1.44,0,0,1,.69-.91l.23-.13a1.51,1.51,0,0,1,1.14-.15,1.46,1.46,0,0,1,.91.7l.51.89-.85.49-.14-.25-.15-.26c-.35-.6-.71-.79-1.1-.56s-.39.54-.11,1l1.6,2.77c.28.49.61.62,1,.4s.4-.55.12-1l-.44-.75.85-.49Z" transform="translate(0 -79.96)" style="fill:#e9ece9"/><path d="M185.21,97.54l.47.81-2.63,1.52-3.24-5.62,2.62-1.53.46.81-1.72,1L182,96l1.73-1,.46.81-1.72,1,1,1.7Z" transform="translate(0 -79.96)" style="fill:#e9ece9"/></g><g style="isolation:isolate"><g style="isolation:isolate"><path d="M196.15,115.25l-.92.53-1.4-2.43-.83.48,1.4,2.42-.91.53-3.25-5.62.92-.53,1.38,2.39.82-.48L192,110.15l.92-.53Z" transform="translate(0 -79.96)" style="fill:#e9ece9"/><path d="M198.84,112.07a1.44,1.44,0,0,1,.14,1.13,1.42,1.42,0,0,1-.69.91l-.23.13a1.43,1.43,0,0,1-1.14.15,1.44,1.44,0,0,1-.91-.69l-1.85-3.22a1.43,1.43,0,0,1-.15-1.14,1.46,1.46,0,0,1,.7-.91l.22-.13a1.43,1.43,0,0,1,1.14-.15,1.46,1.46,0,0,1,.91.7Zm-1,.26-1.61-2.77a1.46,1.46,0,0,0-.35-.46.47.47,0,0,0-.54,0c-.41.23-.48.59-.2,1.08l1.6,2.77c.28.49.61.62,1,.4S198.12,112.82,197.84,112.33Z" transform="translate(0 -79.96)" style="fill:#e9ece9"/><path d="M200.49,107.32l-.87.5a2,2,0,0,0-.42-.55.55.55,0,0,0-.66,0c-.35.2-.38.55-.1,1a3.26,3.26,0,0,0,.47.66.58.58,0,0,0,.72.09,1.61,1.61,0,0,1,1.18-.18,1.34,1.34,0,0,1,.95.67l.41.7a1.5,1.5,0,0,1-.55,2.05l-.23.13a1.43,1.43,0,0,1-1.14.15,1.41,1.41,0,0,1-.91-.69l-.21-.38.86-.5q.51.9,1.08.57a.52.52,0,0,0,.31-.5,1.58,1.58,0,0,0-.23-.58c-.37-.64-.74-.85-1.1-.63a1.72,1.72,0,0,1-1.2.19,1.35,1.35,0,0,1-.95-.67l-.46-.8a1.4,1.4,0,0,1-.15-1.13,1.48,1.48,0,0,1,.7-.92l.23-.13a1.51,1.51,0,0,1,1.14-.15,1.46,1.46,0,0,1,.91.7Z" transform="translate(0 -79.96)" style="fill:#e9ece9"/><path d="M204.35,106.58a1.46,1.46,0,0,1,.21,1,1.22,1.22,0,0,1-.64.82l-.8.46,1,1.73-.9.52-3.3-5.72,1.52-.9a1.47,1.47,0,0,1,1.14-.15,1.43,1.43,0,0,1,.91.7Zm-1,.27-.61-1.06a1.11,1.11,0,0,0-.43-.5.79.79,0,0,0-.66.15l-.4.23,1.45,2.51.54-.3a.53.53,0,0,0,.32-.47A1.18,1.18,0,0,0,203.35,106.85Z" transform="translate(0 -79.96)" style="fill:#e9ece9"/><path d="M207.5,108.69l-.9.52-3.25-5.63.9-.51Z" transform="translate(0 -79.96)" style="fill:#e9ece9"/></g><text transform="translate(207.82 28.54) rotate(-30)" style="isolation:isolate;font-size:10px;fill:#e9ece9;font-family:AccidentalPresidency, Accidental Presidency;letter-spacing:-0.07900390625em">T</text><g style="isolation:isolate"><path d="M213.21,105.39l-.89.52-.95-1.16-.66.38.52,1.41-.9.51-2.25-6.2.93-.53Zm-2.5-1.46-1-1.26.6,1.47Z" transform="translate(0 -79.96)" style="fill:#e9ece9"/><path d="M215.71,102.88l.47.8-2.63,1.52-3.24-5.63.9-.52,2.78,4.82Z" transform="translate(0 -79.96)" style="fill:#e9ece9"/><path d="M221,100.91l-.86.5-.8-1.38a.73.73,0,0,0-.72-.45,3,3,0,0,0-.82.38l1.21,2.1-.9.52-3.26-5.65,1.53-.89a1.43,1.43,0,0,1,1.14-.15,1.46,1.46,0,0,1,.91.7l.56,1a1.42,1.42,0,0,1,.16.65.94.94,0,0,1-.16.61,1.24,1.24,0,0,1,.62.11,1,1,0,0,1,.48.4Zm-3-3.08-.31-.54a1.12,1.12,0,0,0-.47-.51.85.85,0,0,0-.64.16l-.38.23,1.15,2,.55-.31C218.21,98.66,218.24,98.32,218,97.83Z" transform="translate(0 -79.96)" style="fill:#e9ece9"/><path d="M223.59,98.33l.47.8-2.63,1.52L218.19,95l2.62-1.52.46.81-1.72,1,.87,1.52,1.73-1,.46.81-1.72,1,1,1.7Z" transform="translate(0 -79.96)" style="fill:#e9ece9"/><path d="M225.88,94.89l.68,1.17a1.51,1.51,0,0,1,.15,1.14,1.46,1.46,0,0,1-.7.91l-.23.13a1.51,1.51,0,0,1-1.14.15,1.46,1.46,0,0,1-.91-.7l-1.85-3.22a1.4,1.4,0,0,1-.15-1.13,1.43,1.43,0,0,1,.7-.91l.22-.13a1.5,1.5,0,0,1,2,.55l.52.89-.87.5a2,2,0,0,0-.1-.18l-.11-.18a2.64,2.64,0,0,0-.46-.64.57.57,0,0,0-.71-.09c-.35.21-.39.55-.11,1L224.47,97c.28.48.6.61,1,.4a.53.53,0,0,0,.31-.54,2.24,2.24,0,0,0-.27-.61l-.6.35-.47-.82Z" transform="translate(0 -79.96)" style="fill:#e9ece9"/><path d="M228.66,96.48l-.91.52-3.25-5.63.91-.52Z" transform="translate(0 -79.96)" style="fill:#e9ece9"/><path d="M231.36,93.29a1.47,1.47,0,0,1,.14,1.14,1.44,1.44,0,0,1-.69.91l-.23.13a1.51,1.51,0,0,1-1.14.15,1.46,1.46,0,0,1-.91-.7l-1.86-3.22a1.44,1.44,0,0,1-.14-1.13,1.4,1.4,0,0,1,.7-.91l.22-.13a1.43,1.43,0,0,1,1.14-.15,1.44,1.44,0,0,1,.91.69Zm-1,.27-1.6-2.78a1.7,1.7,0,0,0-.35-.45.48.48,0,0,0-.54,0c-.41.24-.48.6-.2,1.08l1.6,2.78c.28.48.61.61,1,.4S230.63,94,230.35,93.56Z" transform="translate(0 -79.96)" style="fill:#e9ece9"/><path d="M235.25,92.67l-.91.53-2.68-2.55,1.77,3.07-.83.48-3.27-5.61.92-.53L233,90.67l-1.81-3.15L232,87Z" transform="translate(0 -79.96)" style="fill:#e9ece9"/><path d="M238.64,90.71l-.89.52-1-1.16-.66.38.52,1.41-.89.52-2.26-6.21.93-.53Zm-2.51-1.46-1-1.26.61,1.47Z" transform="translate(0 -79.96)" style="fill:#e9ece9"/><path d="M241.14,88.2l.46.8L239,90.52l-3.25-5.63.9-.51,2.79,4.81Z" transform="translate(0 -79.96)" style="fill:#e9ece9"/></g></g><g style="isolation:isolate"><path d="M239.58,114a1.47,1.47,0,0,1,.21,1,1.22,1.22,0,0,1-.64.82l-1.7,1-3.26-5.65,1.53-.89a1.43,1.43,0,0,1,1.14-.15,1.46,1.46,0,0,1,.91.7Zm-1,.27L237,111.51a1.17,1.17,0,0,0-.43-.5c-.16-.07-.38,0-.67.15l-.43.25,2.41,4.16.57-.32a.53.53,0,0,0,.32-.47A1.22,1.22,0,0,0,238.58,114.22Z" transform="translate(0 -79.96)" style="fill:#e9ece9"/><path d="M242.91,112a1.5,1.5,0,0,1-.55,2l-.22.13a1.5,1.5,0,0,1-2-.55l-1.86-3.22a1.44,1.44,0,0,1-.14-1.13,1.42,1.42,0,0,1,.69-.91l.23-.13a1.43,1.43,0,0,1,1.14-.15,1.44,1.44,0,0,1,.91.69Zm-1,.27-1.6-2.78a1.7,1.7,0,0,0-.35-.45.48.48,0,0,0-.54,0c-.41.24-.48.6-.2,1.08l1.6,2.78c.28.48.61.61,1,.4S242.19,112.77,241.91,112.29Z" transform="translate(0 -79.96)" style="fill:#e9ece9"/><path d="M246.81,111.39l-.91.53-2.68-2.54,1.77,3.07-.83.48-3.28-5.61.93-.53,2.74,2.61-1.81-3.15.83-.48Z" transform="translate(0 -79.96)" style="fill:#e9ece9"/><path d="M251.16,107.27a1.44,1.44,0,0,1,.21,1,1.24,1.24,0,0,1-.64.81l-1.7,1-3.26-5.65,1.53-.89a1.5,1.5,0,0,1,2,.55l.41.71a1.24,1.24,0,0,1,.15.58.84.84,0,0,1-.12.58.89.89,0,0,1,.54.15,1.16,1.16,0,0,1,.42.4Zm-2.4-2.16-.16-.28a1.22,1.22,0,0,0-.43-.51.85.85,0,0,0-.68.16l-.42.24,1,1.76.44-.24c.26-.16.41-.32.43-.5A1,1,0,0,0,248.76,105.11Zm1.4,2.42-.19-.33c-.25-.43-.48-.59-.68-.47l-.79.46,1,1.7.57-.32a.56.56,0,0,0,.32-.48A1.46,1.46,0,0,0,250.16,107.53Z" transform="translate(0 -79.96)" style="fill:#e9ece9"/><path d="M254.48,105.34a1.5,1.5,0,0,1-.55,2l-.22.13a1.51,1.51,0,0,1-1.14.15,1.46,1.46,0,0,1-.91-.7l-1.86-3.22a1.44,1.44,0,0,1-.14-1.13,1.42,1.42,0,0,1,.69-.91l.23-.13a1.43,1.43,0,0,1,1.14-.15,1.44,1.44,0,0,1,.91.69Zm-1,.27-1.6-2.78a1.7,1.7,0,0,0-.35-.45.48.48,0,0,0-.54,0c-.41.24-.48.6-.2,1.08l1.6,2.78c.28.48.61.61,1,.4S253.76,106.09,253.48,105.61Z" transform="translate(0 -79.96)" style="fill:#e9ece9"/><path d="M256.13,100.6l-.86.5a1.9,1.9,0,0,0-.43-.56.55.55,0,0,0-.65,0c-.35.2-.39.55-.1,1a2.79,2.79,0,0,0,.47.65.57.57,0,0,0,.72.1,1.57,1.57,0,0,1,1.18-.19,1.34,1.34,0,0,1,1,.67l.41.71a1.43,1.43,0,0,1,.15,1.14,1.46,1.46,0,0,1-.7.91l-.23.13a1.5,1.5,0,0,1-2.05-.55l-.22-.37.87-.5q.51.9,1.08.57a.54.54,0,0,0,.31-.51,1.53,1.53,0,0,0-.24-.58c-.36-.63-.73-.84-1.1-.63a1.69,1.69,0,0,1-1.19.2,1.36,1.36,0,0,1-1-.68l-.45-.79a1.43,1.43,0,0,1-.15-1.14,1.46,1.46,0,0,1,.7-.91l.23-.13a1.42,1.42,0,0,1,1.14-.15,1.46,1.46,0,0,1,.91.7Z" transform="translate(0 -79.96)" style="fill:#e9ece9"/><path d="M261,101.58a1.51,1.51,0,0,1,.15,1.14,1.43,1.43,0,0,1-.7.91l-.23.13a1.49,1.49,0,0,1-2-.55L256.31,100a1.43,1.43,0,0,1-.15-1.14,1.46,1.46,0,0,1,.7-.91l.22-.13a1.51,1.51,0,0,1,1.14-.15,1.43,1.43,0,0,1,.91.7l.52.89-.85.49-.15-.25-.15-.26c-.34-.6-.71-.79-1.1-.56s-.39.54-.11,1l1.61,2.77c.28.49.61.62,1,.4s.39-.55.11-1l-.43-.75.85-.49Z" transform="translate(0 -79.96)" style="fill:#e9ece9"/><path d="M264.25,99.7a1.43,1.43,0,0,1,.15,1.14,1.46,1.46,0,0,1-.7.91l-.22.13a1.51,1.51,0,0,1-1.14.15,1.46,1.46,0,0,1-.91-.7l-1.86-3.22a1.48,1.48,0,0,1-.15-1.13,1.43,1.43,0,0,1,.7-.91l.23-.13a1.42,1.42,0,0,1,1.14-.15,1.47,1.47,0,0,1,.91.69Zm-1,.27-1.6-2.78a1.52,1.52,0,0,0-.36-.45.48.48,0,0,0-.54,0c-.41.24-.47.6-.19,1.08l1.6,2.78c.28.48.61.61,1,.4S263.53,100.45,263.25,100Z" transform="translate(0 -79.96)" style="fill:#e9ece9"/></g><g style="isolation:isolate"><path d="M278.55,111.24a1.47,1.47,0,0,1,.21,1.05,1.25,1.25,0,0,1-.64.82l-.8.46,1,1.73-.9.52-3.31-5.72,1.53-.9a1.51,1.51,0,0,1,1.14-.15,1.46,1.46,0,0,1,.91.7Zm-1,.27-.61-1.06a1.17,1.17,0,0,0-.43-.5c-.16-.07-.38,0-.67.15l-.39.23,1.45,2.51.54-.3a.54.54,0,0,0,.32-.47A1.31,1.31,0,0,0,277.55,111.51Z" transform="translate(0 -79.96)" style="fill:#e9ece9"/><path d="M282.77,111.65l.47.81L280.61,114l-3.24-5.62.9-.52,2.78,4.82Z" transform="translate(0 -79.96)" style="fill:#e9ece9"/><path d="M286.33,110.67l-.9.52-.95-1.16-.66.38.52,1.41-.89.52-2.26-6.2.93-.53Zm-2.51-1.46-1-1.26.61,1.47Z" transform="translate(0 -79.96)" style="fill:#e9ece9"/><path d="M289.37,108.92l-2.64,1.53-.43-.74-.65-5.19-1.76,1-.41-.72,2.64-1.53.41.72.67,5.21,1.75-1Z" transform="translate(0 -79.96)" style="fill:#e9ece9"/><path d="M292.63,107l-.89.51-.95-1.16-.66.38.52,1.41-.9.52-2.25-6.2.93-.53Zm-2.5-1.47-1-1.26.61,1.47Z" transform="translate(0 -79.96)" style="fill:#e9ece9"/><path d="M297.58,104.18l-.9.52-.95-1.16-.66.38.52,1.41-.89.51-2.26-6.2.93-.53Zm-2.51-1.46-1-1.26.61,1.47Z" transform="translate(0 -79.96)" style="fill:#e9ece9"/><path d="M300.11,101.09a1.43,1.43,0,0,1,.15,1.14,1.46,1.46,0,0,1-.7.91l-.22.13a1.51,1.51,0,0,1-1.14.15,1.46,1.46,0,0,1-.91-.7l-1.86-3.22a1.44,1.44,0,0,1-.14-1.13,1.42,1.42,0,0,1,.69-.91l.23-.13a1.43,1.43,0,0,1,1.14-.15,1.46,1.46,0,0,1,.91.7l.51.89-.85.49c0-.05-.07-.14-.14-.26s-.12-.2-.15-.26c-.35-.59-.71-.78-1.1-.56s-.39.55-.11,1L298,102q.42.72,1,.39c.36-.2.4-.55.12-1l-.44-.76.85-.49Z" transform="translate(0 -79.96)" style="fill:#e9ece9"/><path d="M303.34,99.78l.47.8-2.63,1.52-3.24-5.62L300.56,95l.46.8-1.72,1,.87,1.51,1.73-1,.46.8-1.72,1,1,1.7Z" transform="translate(0 -79.96)" style="fill:#e9ece9"/><path d="M303.77,93.11l2.26,6.2-.93.53-4.21-5.07.9-.52,2.73,3.51-1.65-4.13Z" transform="translate(0 -79.96)" style="fill:#e9ece9"/><path d="M309.51,96.22,310,97l-2.62,1.51-3.25-5.62,2.62-1.52.47.8-1.73,1,.88,1.51,1.72-1,.47.8-1.73,1,1,1.69Z" transform="translate(0 -79.96)" style="fill:#e9ece9"/><path d="M312.51,93.94a1.48,1.48,0,0,1,.21,1,1.25,1.25,0,0,1-.64.82l-1.7,1-3.26-5.65,1.53-.89a1.4,1.4,0,0,1,1.13-.15,1.45,1.45,0,0,1,.92.7Zm-1,.27L310,91.5a1.18,1.18,0,0,0-.44-.5c-.16-.07-.38,0-.66.15l-.43.25,2.4,4.16.58-.32a.54.54,0,0,0,.32-.47A1.51,1.51,0,0,0,311.51,94.21Z" transform="translate(0 -79.96)" style="fill:#e9ece9"/><path d="M315.84,92a1.43,1.43,0,0,1,.15,1.14,1.46,1.46,0,0,1-.7.91l-.23.13a1.49,1.49,0,0,1-2-.55l-1.86-3.22a1.4,1.4,0,0,1-.15-1.13,1.43,1.43,0,0,1,.7-.91l.23-.13a1.4,1.4,0,0,1,1.13-.15,1.45,1.45,0,0,1,.91.69Zm-1,.27-1.6-2.78a1.52,1.52,0,0,0-.36-.45.48.48,0,0,0-.54,0c-.41.24-.47.6-.2,1.08l1.61,2.78c.28.48.6.61,1,.4S315.12,92.76,314.84,92.28Z" transform="translate(0 -79.96)" style="fill:#e9ece9"/></g><g style="isolation:isolate"><path d="M316.54,114a1.51,1.51,0,0,1,.15,1.14,1.49,1.49,0,0,1-.7.91l-.23.13a1.51,1.51,0,0,1-1.14.15,1.46,1.46,0,0,1-.91-.7l-1.85-3.22a1.4,1.4,0,0,1-.15-1.13,1.43,1.43,0,0,1,.7-.91l.22-.13a1.43,1.43,0,0,1,1.14-.15,1.46,1.46,0,0,1,.91.7l.52.89-.85.49-.15-.26c-.07-.11-.12-.2-.15-.26-.34-.59-.71-.78-1.1-.56s-.39.55-.11,1l1.61,2.78q.41.72,1,.39c.35-.2.39-.55.11-1l-.43-.76L316,113Z" transform="translate(0 -79.96)" style="fill:#e9ece9"/><path d="M319.8,112.08a1.5,1.5,0,0,1-.55,2l-.22.13a1.43,1.43,0,0,1-1.14.15,1.46,1.46,0,0,1-.91-.7l-1.86-3.21a1.51,1.51,0,0,1-.15-1.14,1.46,1.46,0,0,1,.7-.91l.23-.13a1.5,1.5,0,0,1,1.14-.15,1.46,1.46,0,0,1,.91.7Zm-1,.27-1.6-2.77a1.62,1.62,0,0,0-.35-.46.48.48,0,0,0-.55,0c-.41.23-.47.59-.19,1.08l1.6,2.77c.28.49.61.62,1,.4S319.08,112.84,318.8,112.35Z" transform="translate(0 -79.96)" style="fill:#e9ece9"/><path d="M323,110.77l.46.81-2.62,1.51-3.25-5.62.9-.52,2.78,4.81Z" transform="translate(0 -79.96)" style="fill:#e9ece9"/><path d="M325.81,109.17l.46.8-2.62,1.52-3.25-5.62.9-.52,2.78,4.82Z" transform="translate(0 -79.96)" style="fill:#e9ece9"/><path d="M329.37,108.19l-.9.52-1-1.16-.66.38.52,1.41-.9.52-2.25-6.21.93-.52Zm-2.51-1.46-1-1.27.6,1.48Z" transform="translate(0 -79.96)" style="fill:#e9ece9"/><path d="M332,105.07a1.43,1.43,0,0,1,.15,1.14,1.46,1.46,0,0,1-.7.91l-.22.13a1.51,1.51,0,0,1-1.14.15,1.43,1.43,0,0,1-.91-.7l-1.86-3.22a1.49,1.49,0,0,1,.55-2l.23-.13a1.4,1.4,0,0,1,1.13-.15,1.46,1.46,0,0,1,.92.69Zm-1,.27-1.6-2.78a1.7,1.7,0,0,0-.35-.45.5.5,0,0,0-.55,0c-.41.24-.47.6-.19,1.08l1.6,2.78c.28.48.61.61,1,.4S331.23,105.82,331,105.34Z" transform="translate(0 -79.96)" style="fill:#e9ece9"/></g><g style="isolation:isolate"><path d="M353.6,113.94a1.48,1.48,0,0,1,.15,1.13,1.43,1.43,0,0,1-.7.91l-.23.13a1.42,1.42,0,0,1-1.14.15,1.44,1.44,0,0,1-.91-.69l-2.57-4.47.86-.5,2.45,4.23c.28.49.6.62,1,.4s.39-.54.11-1L350.16,110l.86-.5Z" transform="translate(0 -79.96)" style="fill:#e9ece9"/><path d="M355.88,114.25l-.9.51-.56-1,.91-.51Z" transform="translate(0 -79.96)" style="fill:#e9ece9"/><path d="M360.27,110.09a1.48,1.48,0,0,1,.21,1,1.25,1.25,0,0,1-.64.82l-1.7,1-3.26-5.65,1.53-.89a1.4,1.4,0,0,1,1.13-.15,1.45,1.45,0,0,1,.92.7Zm-1,.27-1.56-2.71a1.18,1.18,0,0,0-.44-.5.76.76,0,0,0-.66.15l-.43.25,2.4,4.16.58-.32a.54.54,0,0,0,.32-.47A1.46,1.46,0,0,0,359.27,110.36Z" transform="translate(0 -79.96)" style="fill:#e9ece9"/><path d="M363.56,108.73l.47.81-2.63,1.51-3.24-5.62,2.62-1.52.46.81-1.72,1,.87,1.52,1.73-1,.46.81-1.72,1,1,1.7Z" transform="translate(0 -79.96)" style="fill:#e9ece9"/><path d="M366.48,107.05l.47.81-2.63,1.51-3.24-5.62.9-.52,2.78,4.81Z" transform="translate(0 -79.96)" style="fill:#e9ece9"/><path d="M371,103.9a1.43,1.43,0,0,1,.2,1,1.24,1.24,0,0,1-.63.82l-1.7,1-3.26-5.65,1.52-.89a1.43,1.43,0,0,1,1.14-.15,1.44,1.44,0,0,1,.92.7l.41.71a1.24,1.24,0,0,1,.15.58,1,1,0,0,1-.12.58.89.89,0,0,1,.54.15,1.16,1.16,0,0,1,.42.4Zm-2.4-2.16-.16-.28c-.17-.29-.31-.46-.44-.51a.83.83,0,0,0-.67.16l-.42.24,1,1.76c.29-.15.43-.24.45-.24.26-.16.41-.32.43-.5A1,1,0,0,0,368.6,101.74Zm1.4,2.42-.2-.33c-.24-.43-.47-.59-.67-.47l-.8.46,1,1.7.58-.32a.56.56,0,0,0,.32-.48A1.46,1.46,0,0,0,370,104.16Z" transform="translate(0 -79.96)" style="fill:#e9ece9"/><path d="M370,96.38l-.8,2-.73.42L369,97Zm3,8-.9.53-3.25-5.63.91-.52Z" transform="translate(0 -79.96)" style="fill:#e9ece9"/><path d="M375.73,101.16a1.4,1.4,0,0,1,.15,1.13,1.43,1.43,0,0,1-.7.91l-.22.13a1.43,1.43,0,0,1-1.14.15,1.44,1.44,0,0,1-.91-.69l-1.86-3.22a1.51,1.51,0,0,1-.15-1.14,1.46,1.46,0,0,1,.7-.91l.23-.13a1.49,1.49,0,0,1,1.13-.15,1.45,1.45,0,0,1,.92.7Zm-1,.26-1.6-2.77a1.62,1.62,0,0,0-.35-.46.48.48,0,0,0-.55,0c-.41.23-.47.59-.19,1.08l1.6,2.77c.28.49.61.62,1,.4S375,101.91,374.73,101.42Z" transform="translate(0 -79.96)" style="fill:#e9ece9"/><path d="M377.19,99.48l-1.32.77-.46-.8,1.32-.77Z" transform="translate(0 -79.96)" style="fill:#e9ece9"/><path d="M380.89,98.19a1.48,1.48,0,0,1,.2,1,1.24,1.24,0,0,1-.63.82l-1.7,1-3.26-5.65L377,94.5a1.4,1.4,0,0,1,1.13-.15,1.44,1.44,0,0,1,.92.7l.41.71a1.24,1.24,0,0,1,.15.58,1,1,0,0,1-.12.58.89.89,0,0,1,.54.15,1.16,1.16,0,0,1,.42.4ZM378.49,96l-.16-.28c-.17-.29-.31-.46-.44-.51a.83.83,0,0,0-.67.16l-.42.24,1,1.76.44-.24c.27-.16.42-.32.44-.5A1.08,1.08,0,0,0,378.49,96Zm1.4,2.42-.2-.33c-.24-.43-.47-.58-.67-.47l-.8.46,1,1.7.58-.32a.54.54,0,0,0,.32-.47A1.49,1.49,0,0,0,379.89,98.45Z" transform="translate(0 -79.96)" style="fill:#e9ece9"/><path d="M379.92,90.67l-.8,2-.73.42.45-1.79Zm3,8-.9.52-3.25-5.63.91-.52Z" transform="translate(0 -79.96)" style="fill:#e9ece9"/><path d="M385.62,95.45a1.4,1.4,0,0,1,.15,1.13,1.43,1.43,0,0,1-.7.91l-.22.13a1.43,1.43,0,0,1-1.14.15,1.44,1.44,0,0,1-.91-.69l-1.86-3.22a1.51,1.51,0,0,1-.15-1.14,1.46,1.46,0,0,1,.7-.91l.23-.13a1.5,1.5,0,0,1,1.14-.15,1.46,1.46,0,0,1,.91.7Zm-1,.26L383,92.94a1.62,1.62,0,0,0-.35-.46.48.48,0,0,0-.55,0c-.41.23-.47.59-.19,1.08l1.6,2.77c.28.49.61.62,1,.4S384.9,96.2,384.62,95.71Z" transform="translate(0 -79.96)" style="fill:#e9ece9"/></g><g style="isolation:isolate"><path d="M32.5,111.91a.88.88,0,0,1,.08.69.83.83,0,0,1-.41.54l-.14.08a.89.89,0,0,1-.68.09.86.86,0,0,1-.55-.42l-.54-.94a.82.82,0,0,1-.09-.68.86.86,0,0,1,.42-.55l.13-.08a.93.93,0,0,1,.69-.09A.88.88,0,0,1,32,111l.16.28-.52.3a1.39,1.39,0,0,0-.26-.36.32.32,0,0,0-.41,0c-.22.12-.24.32-.07.61l.39.68c.17.29.36.37.59.24a.32.32,0,0,0,.18-.36,2,2,0,0,0-.2-.4l.52-.3Z" transform="translate(0 -79.96)" style="fill:#febd00"/><path d="M34.4,110.82a.89.89,0,0,1,.09.68.88.88,0,0,1-.42.54l-.14.08a.81.81,0,0,1-.68.09.86.86,0,0,1-.55-.42l-.54-.94a.85.85,0,0,1-.09-.68.89.89,0,0,1,.42-.55l.13-.08a.88.88,0,0,1,.69-.08.83.83,0,0,1,.54.41Zm-.6.16-.4-.68c-.16-.29-.36-.37-.58-.24s-.24.33-.07.61l.39.69c.17.28.37.36.59.23S34,111.27,33.8,111Z" transform="translate(0 -79.96)" style="fill:#febd00"/><path d="M37,108l1,1.72-.51.29-.92-1.59c-.17-.29-.36-.37-.59-.24a.36.36,0,0,0-.18.24.35.35,0,0,0,0,.3l1,1.69-.52.3-1-1.69a.38.38,0,0,0-.54-.14.31.31,0,0,0-.15.47l1,1.73-.55.31-1.44-2.49.54-.3.07.13a.69.69,0,0,1,.37-.4.68.68,0,0,1,.35-.07.69.69,0,0,1,.33.08,1.15,1.15,0,0,1,.15-.36.74.74,0,0,1,.25-.27,1,1,0,0,1,.71-.11A.81.81,0,0,1,37,108Z" transform="translate(0 -79.96)" style="fill:#febd00"/><path d="M39.54,107.85a.82.82,0,0,1,.08.71,1.1,1.1,0,0,1-.5.57.47.47,0,0,1-.23,0,.46.46,0,0,1-.22,0l.08.15-.5.29-1.94-3.37.54-.32.61,1.07a.56.56,0,0,1,.31-.38.85.85,0,0,1,.68-.08.82.82,0,0,1,.54.42Zm-.6.16-.4-.68c-.16-.29-.36-.37-.59-.24a.3.3,0,0,0-.13.47l.55,1a.3.3,0,0,0,.22.16.39.39,0,0,0,.28,0C39.08,108.51,39.1,108.3,38.94,108Z" transform="translate(0 -79.96)" style="fill:#febd00"/><path d="M39.18,105.3l-.54.31-.33-.58.54-.3Zm1.61,2.8-.53.31-1.44-2.49.53-.32Z" transform="translate(0 -79.96)" style="fill:#febd00"/><path d="M41.81,105.22l1,1.72-.51.29-.92-1.59q-.26-.44-.6-.24c-.21.13-.26.28-.14.48l1,1.72-.54.32-1.44-2.5.53-.3.07.13a.74.74,0,0,1,.37-.39.79.79,0,0,1,.65-.08A.9.9,0,0,1,41.81,105.22Z" transform="translate(0 -79.96)" style="fill:#febd00"/><path d="M44.86,105.75l-.52.3-.1-.18c.08.16,0,.32-.32.48a1,1,0,0,1-.66.13.76.76,0,0,1-.56-.35,1,1,0,0,1-.11-.44,1.06,1.06,0,0,1,.08-.45.9.9,0,0,1,.41-.41,1.09,1.09,0,0,1,.46-.17l-.08-.14c-.17-.3-.37-.38-.59-.25a.31.31,0,0,0-.17.21.57.57,0,0,0,0,.28l-.52.29a.89.89,0,0,1-.09-.68.93.93,0,0,1,.42-.55l.14-.07a.81.81,0,0,1,.68-.09.86.86,0,0,1,.55.42Zm-.93-.43a.37.37,0,0,0-.25-.17.46.46,0,0,0-.31,0,.42.42,0,0,0-.21.27.36.36,0,0,0,0,.32.3.3,0,0,0,.27.14.55.55,0,0,0,.31-.07.52.52,0,0,0,.2-.24A.39.39,0,0,0,43.93,105.32Z" transform="translate(0 -79.96)" style="fill:#febd00"/><path d="M46.4,103.89a.89.89,0,0,1,.09.68.88.88,0,0,1-.42.54l-.13.08a.9.9,0,0,1-1.23-.32l-.55-1a.89.89,0,0,1-.09-.68.93.93,0,0,1,.42-.55l.14-.07a.81.81,0,0,1,.68-.09.86.86,0,0,1,.55.42l.16.27-.52.3a1.63,1.63,0,0,0-.27-.36.32.32,0,0,0-.41,0c-.21.12-.23.33-.07.62l.4.68c.16.28.36.36.58.23a.29.29,0,0,0,.18-.36,1.76,1.76,0,0,0-.19-.39l.52-.3Z" transform="translate(0 -79.96)" style="fill:#febd00"/><path d="M46,101.36l-.54.31-.33-.58.54-.3Zm1.62,2.8-.54.31L45.64,102l.54-.31Z" transform="translate(0 -79.96)" style="fill:#febd00"/><path d="M47.66,99.46l-.49,1.19-.43.26L47,99.83Zm1.48,2.85a.89.89,0,0,1,.09.68.88.88,0,0,1-.42.54l-.14.08a.81.81,0,0,1-.68.09.88.88,0,0,1-.55-.41l-.54-1a.89.89,0,0,1-.09-.68.93.93,0,0,1,.42-.55l.13-.07a.9.9,0,0,1,1.23.32Zm-.6.16-.39-.68c-.17-.29-.37-.37-.59-.24s-.24.33-.07.61l.39.69c.17.28.37.36.59.23S48.71,102.76,48.54,102.47Z" transform="translate(0 -79.96)" style="fill:#febd00"/><path d="M50.55,100.17l1,1.72-.51.3-.92-1.6c-.17-.29-.37-.36-.6-.23s-.26.28-.14.47l1,1.73-.54.31-1.44-2.49.53-.3.08.13c0-.14.15-.27.36-.4a.79.79,0,0,1,.65-.07A.89.89,0,0,1,50.55,100.17Z" transform="translate(0 -79.96)" style="fill:#febd00"/><path d="M54.12,99.43a.88.88,0,0,1,.13.63.75.75,0,0,1-.39.49l-1,.59-2-3.39.92-.53a.81.81,0,0,1,.68-.09.86.86,0,0,1,.55.42l.24.42a.65.65,0,0,1,.09.35.51.51,0,0,1-.07.35.55.55,0,0,1,.33.09.82.82,0,0,1,.25.24Zm-1.44-1.29L52.59,98a.73.73,0,0,0-.26-.3.5.5,0,0,0-.41.09l-.25.15.61,1,.26-.15c.16-.09.25-.19.26-.29A.56.56,0,0,0,52.68,98.14Zm.84,1.45-.11-.2c-.15-.26-.29-.35-.41-.28l-.48.28.59,1,.35-.19a.32.32,0,0,0,.19-.28A.77.77,0,0,0,53.52,99.59Z" transform="translate(0 -79.96)" style="fill:#febd00"/><path d="M55.42,99.66l-.54.31-2-3.38.54-.31Z" transform="translate(0 -79.96)" style="fill:#febd00"/><path d="M57,97.75a.89.89,0,0,1,.09.68.88.88,0,0,1-.42.54l-.14.08a.81.81,0,0,1-.68.09.86.86,0,0,1-.55-.42l-1.11-1.93a.85.85,0,0,1-.09-.68.82.82,0,0,1,.42-.54l.13-.08a.84.84,0,0,1,.69-.09.82.82,0,0,1,.54.42Zm-.6.16-1-1.67a.7.7,0,0,0-.21-.27.27.27,0,0,0-.32,0c-.25.14-.29.36-.12.65l1,1.66c.17.29.37.37.59.24S56.6,98.2,56.44,97.91Z" transform="translate(0 -79.96)" style="fill:#febd00"/><path d="M57.61,94.46l-.53.31,1.7,2.94-.54.31-1.7-2.94-.52.3L55.77,95,57.35,94Z" transform="translate(0 -79.96)" style="fill:#febd00"/><path d="M61.27,96.28l-.52.3-.47-.83a.44.44,0,0,0-.43-.27,1.65,1.65,0,0,0-.5.22L60.08,97l-.54.32-2-3.39.92-.54a.89.89,0,0,1,.68-.09.93.93,0,0,1,.55.42l.33.59a.75.75,0,0,1,.1.39.57.57,0,0,1-.09.36.72.72,0,0,1,.37.07.64.64,0,0,1,.29.24Zm-1.8-1.85-.19-.33c-.1-.17-.19-.27-.28-.3a.51.51,0,0,0-.39.1l-.23.13.7,1.2.32-.18C59.61,94.93,59.63,94.72,59.47,94.43Z" transform="translate(0 -79.96)" style="fill:#febd00"/><path d="M62.84,94.72l.28.49-1.57.91L59.6,92.74l1.57-.91.28.48-1,.6.52.91,1-.6.28.49-1,.59.59,1Z" transform="translate(0 -79.96)" style="fill:#febd00"/><path d="M65,94.13l-.55.32-1.61-1.53,1.07,1.84-.5.29-2-3.36.55-.32,1.65,1.56L62.55,91l.5-.28Z" transform="translate(0 -79.96)" style="fill:#febd00"/></g></svg>